SplineFontDB: 3.0
FontName: Marvel-Italic
FullName: Marvel Italic
FamilyName: Marvel
Weight: Book
Copyright: Copyright (c) 2011, Carolina Trebol <ca@fromzero.org>, with Reserved Font Name "Marvel".
Version: 1.001
ItalicAngle: -12
UnderlinePosition: -50
UnderlineWidth: 50
Ascent: 800
Descent: 200
sfntRevision: 0x00010042
LayerCount: 2
Layer: 0 1 "Back"  1
Layer: 1 1 "Fore"  0
XUID: [1021 288 713564382 196297]
FSType: 0
OS2Version: 3
OS2_WeightWidthSlopeOnly: 0
OS2_UseTypoMetrics: 1
CreationTime: 1305456540
ModificationTime: 1311993682
PfmFamily: 17
TTFWeight: 400
TTFWidth: 5
LineGap: 0
VLineGap: 0
Panose: 2 0 0 0 0 0 0 0 0 0
OS2TypoAscent: 151
OS2TypoAOffset: 1
OS2TypoDescent: -59
OS2TypoDOffset: 1
OS2TypoLinegap: 0
OS2WinAscent: 0
OS2WinAOffset: 1
OS2WinDescent: 0
OS2WinDOffset: 1
HheadAscent: 0
HheadAOffset: 1
HheadDescent: 0
HheadDOffset: 1
OS2SubXSize: 700
OS2SubYSize: 650
OS2SubXOff: 0
OS2SubYOff: 140
OS2SupXSize: 700
OS2SupYSize: 650
OS2SupXOff: 0
OS2SupYOff: 477
OS2StrikeYSize: 50
OS2StrikeYPos: 250
OS2Vendor: 'abcd'
OS2CodePages: 00000001.00000000
OS2UnicodeRanges: 800000a7.4800004a.14000000.00000000
Lookup: 258 0 0 "'kern' Horizontal Kerning in Latin lookup 0"  {"'kern' Horizontal Kerning in Latin lookup 0 subtable"  } ['kern' ('DFLT' <'dflt' > 'latn' <'dflt' > ) ]
DEI: 91125
TtTable: prep
PUSHW_1
 511
SCANCTRL
PUSHB_1
 4
SCANTYPE
EndTTInstrs
ShortTable: maxp 16
  1
  0
  195
  122
  4
  73
  4
  2
  0
  1
  1
  0
  64
  0
  2
  1
EndShort
LangName: 1033 "" "" "" "CarolinaTrebol: Marvel: 2011" "" "Version 1.001" "" "Marvel is a trademark of Carolina Trebol." "Carolina Trebol" "Carolina Trebol" "" "fromzero.org" "fromzero.org" "This Font Software is licensed under the SIL Open Font License, Version 1.1. This license is available with a FAQ at: http://scripts.sil.org/OFL" "http://scripts.sil.org/OFL" "" "" "" "Marvel Italic" 
GaspTable: 1 65535 15
Encoding: UnicodeBmp
UnicodeInterp: none
NameList: Adobe Glyph List
DisplaySize: -36
AntiAlias: 1
FitToEm: 1

StartChar: exclam
Encoding: 33 33 4
Width: 193
Flags: W
LayerCount: 2
Fore
SplineSet
43 141 m 1,0,-1
 142 700 l 1,1,-1
 194 700 l 1,2,-1
 95 141 l 1,3,-1
 43 141 l 1,0,-1
18 1 m 1,4,-1
 34 91 l 1,5,-1
 87 91 l 1,6,-1
 71 1 l 1,7,-1
 18 1 l 1,4,-1
EndSplineSet
EndChar

StartChar: quotedbl
Encoding: 34 34 5
Width: 314
Flags: W
LayerCount: 2
Fore
SplineSet
332 648 m 2,0,1
 322 592 322 592 293.5 558 c 128,-1,2
 265 524 265 524 223 508 c 1,3,-1
 217 568 l 1,4,5
 236 576 236 576 251.5 594.5 c 128,-1,6
 267 613 267 613 274 649 c 2,7,-1
 283 700 l 1,8,-1
 341 700 l 1,9,-1
 332 648 l 2,0,1
201 648 m 2,10,11
 191 592 191 592 162.5 558 c 128,-1,12
 134 524 134 524 92 508 c 1,13,-1
 86 568 l 1,14,15
 105 576 105 576 120.5 594.5 c 128,-1,16
 136 613 136 613 143 649 c 2,17,-1
 152 700 l 1,18,-1
 210 700 l 1,19,-1
 201 648 l 2,10,11
EndSplineSet
EndChar

StartChar: dollar
Encoding: 36 36 6
Width: 475
Flags: W
LayerCount: 2
Fore
SplineSet
290 764 m 1,0,-1
 345 764 l 1,1,-1
 333 695 l 1,2,3
 344 693 344 693 354 689.5 c 128,-1,4
 364 686 364 686 372 683 c 2,5,-1
 451 648 l 1,6,-1
 422 592 l 1,7,8
 412 597 412 597 396.5 605 c 128,-1,9
 381 613 381 613 363 621 c 128,-1,10
 345 629 345 629 327.5 634.5 c 128,-1,11
 310 640 310 640 295 640 c 0,12,13
 268 640 268 640 243 629 c 128,-1,14
 218 618 218 618 198 599 c 128,-1,15
 178 580 178 580 164.5 555 c 128,-1,16
 151 530 151 530 146 503 c 0,17,18
 141 472 141 472 148 448.5 c 128,-1,19
 155 425 155 425 171 409.5 c 128,-1,20
 187 394 187 394 209.5 386.5 c 128,-1,21
 232 379 232 379 258 379 c 0,22,23
 298 379 298 379 330.5 365.5 c 128,-1,24
 363 352 363 352 385 328 c 128,-1,25
 407 304 407 304 416 270 c 128,-1,26
 425 236 425 236 418 196 c 0,27,28
 411 157 411 157 392 122.5 c 128,-1,29
 373 88 373 88 345 62 c 128,-1,30
 317 36 317 36 282.5 19.5 c 128,-1,31
 248 3 248 3 211 0 c 1,32,-1
 198 -73 l 1,33,-1
 143 -73 l 1,34,-1
 156 3 l 1,35,36
 133 11 133 11 110.5 20 c 128,-1,37
 88 29 88 29 68.5 37.5 c 128,-1,38
 49 46 49 46 33.5 53.5 c 128,-1,39
 18 61 18 61 10 65 c 1,40,-1
 40 120 l 1,41,42
 87 97 87 97 115 84.5 c 128,-1,43
 143 72 143 72 159.5 66 c 128,-1,44
 176 60 176 60 185 58.5 c 128,-1,45
 194 57 194 57 204 57 c 0,46,47
 232 57 232 57 258 67.5 c 128,-1,48
 284 78 284 78 305 96 c 128,-1,49
 326 114 326 114 340.5 139 c 128,-1,50
 355 164 355 164 360 194 c 0,51,52
 365 225 365 225 357.5 248 c 128,-1,53
 350 271 350 271 333.5 286.5 c 128,-1,54
 317 302 317 302 294 309.5 c 128,-1,55
 271 317 271 317 247 317 c 0,56,57
 207 317 207 317 174 330.5 c 128,-1,58
 141 344 141 344 119.5 368.5 c 128,-1,59
 98 393 98 393 89 426.5 c 128,-1,60
 80 460 80 460 87 500 c 0,61,62
 93 537 93 537 111 570 c 128,-1,63
 129 603 129 603 154.5 629 c 128,-1,64
 180 655 180 655 212 672.5 c 128,-1,65
 244 690 244 690 278 696 c 1,66,-1
 290 764 l 1,0,-1
EndSplineSet
EndChar

StartChar: ampersand
Encoding: 38 38 7
Width: 598
Flags: W
LayerCount: 2
Fore
SplineSet
388 129 m 1,0,-1
 227 342 l 1,1,-1
 166 310 l 2,2,3
 127 289 127 289 102 260.5 c 128,-1,4
 77 232 77 232 69 192 c 0,5,6
 63 159 63 159 70.5 131.5 c 128,-1,7
 78 104 78 104 96 85 c 128,-1,8
 114 66 114 66 140 55.5 c 128,-1,9
 166 45 166 45 198 45 c 0,10,11
 258 45 258 45 304 67.5 c 128,-1,12
 350 90 350 90 388 129 c 1,0,-1
497 359 m 1,13,-1
 545 359 l 1,14,15
 540 331 540 331 532 300 c 128,-1,16
 524 269 524 269 513 238.5 c 128,-1,17
 502 208 502 208 487 179.5 c 128,-1,18
 472 151 472 151 453 129 c 1,19,-1
 541 0 l 1,20,-1
 477 0 l 1,21,-1
 419 89 l 1,22,23
 373 44 373 44 314.5 17.5 c 128,-1,24
 256 -9 256 -9 189 -9 c 0,25,26
 145 -9 145 -9 109.5 5 c 128,-1,27
 74 19 74 19 50 45 c 128,-1,28
 26 71 26 71 16 108 c 128,-1,29
 6 145 6 145 14 191 c 0,30,31
 24 245 24 245 56 283 c 128,-1,32
 88 321 88 321 139 348 c 2,33,-1
 201 381 l 1,34,-1
 159 439 l 2,35,36
 139 468 139 468 132 495 c 128,-1,37
 125 522 125 522 131 556 c 0,38,39
 137 589 137 589 154 618 c 128,-1,40
 171 647 171 647 197 668 c 128,-1,41
 223 689 223 689 256 701.5 c 128,-1,42
 289 714 289 714 325 714 c 0,43,44
 360 714 360 714 389.5 703 c 128,-1,45
 419 692 419 692 438.5 671.5 c 128,-1,46
 458 651 458 651 466 621.5 c 128,-1,47
 474 592 474 592 468 556 c 0,48,49
 459 505 459 505 429.5 471.5 c 128,-1,50
 400 438 400 438 355 414 c 2,51,-1
 274 370 l 1,52,-1
 426 167 l 1,53,54
 455 206 455 206 470.5 253.5 c 128,-1,55
 486 301 486 301 497 359 c 1,13,-1
417 556 m 0,56,57
 425 607 425 607 396.5 636.5 c 128,-1,58
 368 666 368 666 317 666 c 0,59,60
 294 666 294 666 271.5 658 c 128,-1,61
 249 650 249 650 231 636 c 128,-1,62
 213 622 213 622 200.5 601.5 c 128,-1,63
 188 581 188 581 184 556 c 0,64,65
 182 543 182 543 183.5 531 c 128,-1,66
 185 519 185 519 192 502.5 c 128,-1,67
 199 486 199 486 213 463.5 c 128,-1,68
 227 441 227 441 249 407 c 1,69,-1
 337 456 l 2,70,71
 369 474 369 474 390 499 c 128,-1,72
 411 524 411 524 417 556 c 0,56,57
477 0 m 1,73,-1
 419 89 l 1,74,-1
 477 0 l 1,73,-1
EndSplineSet
EndChar

StartChar: quotesingle
Encoding: 39 39 8
Width: 183
Flags: W
LayerCount: 2
Fore
SplineSet
201 648 m 1,0,1
 191 592 191 592 162.5 558 c 128,-1,2
 134 524 134 524 92 508 c 1,3,-1
 86 568 l 1,4,5
 105 576 105 576 120.5 594.5 c 128,-1,6
 136 613 136 613 143 649 c 2,7,-1
 152 700 l 1,8,-1
 210 700 l 1,9,-1
 201 648 l 1,10,-1
 201 648 l 1,0,1
EndSplineSet
EndChar

StartChar: parenleft
Encoding: 40 40 9
Width: 232
Flags: W
LayerCount: 2
Fore
SplineSet
25 82 m 2,0,-1
 120 619 l 2,1,2
 126 654 126 654 139.5 679 c 128,-1,3
 153 704 153 704 171.5 719.5 c 128,-1,4
 190 735 190 735 213 742.5 c 128,-1,5
 236 750 236 750 261 750 c 2,6,-1
 279 750 l 1,7,-1
 269 696 l 1,8,-1
 256 696 l 2,9,10
 227 696 227 696 204 681 c 128,-1,11
 181 666 181 666 174 624 c 2,12,-1
 77 77 l 2,13,14
 73 56 73 56 76 42.5 c 128,-1,15
 79 29 79 29 87.5 20.5 c 128,-1,16
 96 12 96 12 108 8.5 c 128,-1,17
 120 5 120 5 134 5 c 2,18,-1
 147 5 l 1,19,-1
 138 -49 l 1,20,-1
 120 -49 l 2,21,22
 95 -49 95 -49 75 -41.5 c 128,-1,23
 55 -34 55 -34 42 -18.5 c 128,-1,24
 29 -3 29 -3 24 22 c 128,-1,25
 19 47 19 47 25 82 c 2,0,-1
EndSplineSet
EndChar

StartChar: parenright
Encoding: 41 41 10
Width: 233
Flags: W
LayerCount: 2
Fore
SplineSet
132 81 m 1,0,1
 119 11 119 11 80 -19.5 c 128,-1,2
 41 -50 41 -50 -9 -50 c 2,3,-1
 -27 -50 l 1,4,-1
 -18 4 l 1,5,-1
 -5 4 l 2,6,7
 24 4 24 4 47 19 c 128,-1,8
 70 34 70 34 78 76 c 2,9,-1
 176 624 l 2,10,11
 179 645 179 645 176 658.5 c 128,-1,12
 173 672 173 672 164.5 680.5 c 128,-1,13
 156 689 156 689 144 692.5 c 128,-1,14
 132 696 132 696 118 696 c 2,15,-1
 105 696 l 1,16,-1
 115 750 l 1,17,-1
 133 750 l 2,18,19
 158 750 158 750 178 742.5 c 128,-1,20
 198 735 198 735 211 719.5 c 128,-1,21
 224 704 224 704 229 679 c 128,-1,22
 234 654 234 654 228 619 c 2,23,-1
 132 81 l 1,24,-1
 132 81 l 1,0,1
EndSplineSet
EndChar

StartChar: asterisk
Encoding: 42 42 11
Width: 398
Flags: W
LayerCount: 2
Fore
SplineSet
313 224 m 1,0,-1
 215 289 l 1,1,-1
 197 163 l 1,2,-1
 153 163 l 1,3,-1
 178 289 l 1,4,-1
 60 224 l 1,5,-1
 45 262 l 1,6,-1
 165 322 l 1,7,-1
 66 382 l 1,8,-1
 94 419 l 1,9,-1
 190 355 l 1,10,-1
 209 481 l 1,11,-1
 253 481 l 1,12,-1
 227 355 l 1,13,-1
 347 419 l 1,14,-1
 362 382 l 1,15,-1
 241 322 l 1,16,-1
 341 262 l 1,17,-1
 313 224 l 1,0,-1
EndSplineSet
EndChar

StartChar: plus
Encoding: 43 43 12
Width: 428
Flags: W
LayerCount: 2
Fore
SplineSet
373 235 m 1,0,-1
 236 235 l 1,1,-1
 212 98 l 1,2,-1
 147 98 l 1,3,-1
 171 235 l 1,4,-1
 34 235 l 1,5,-1
 45 300 l 1,6,-1
 182 300 l 1,7,-1
 207 437 l 1,8,-1
 272 437 l 1,9,-1
 247 300 l 1,10,-1
 384 300 l 1,11,-1
 373 235 l 1,0,-1
EndSplineSet
EndChar

StartChar: comma
Encoding: 44 44 13
Width: 174
Flags: W
LayerCount: 2
Fore
SplineSet
75 48 m 1,0,1
 65 -8 65 -8 36.5 -42 c 128,-1,2
 8 -76 8 -76 -34 -92 c 1,3,-1
 -40 -32 l 1,4,5
 -21 -24 -21 -24 -5 -5.5 c 128,-1,6
 11 13 11 13 17 49 c 2,7,-1
 26 100 l 1,8,-1
 84 100 l 1,9,-1
 75 48 l 1,10,-1
 75 48 l 1,0,1
EndSplineSet
EndChar

StartChar: hyphen
Encoding: 45 45 14
Width: 364
Flags: W
LayerCount: 2
Fore
SplineSet
66 323 m 1,0,-1
 78 387 l 1,1,-1
 318 387 l 1,2,-1
 306 323 l 1,3,-1
 66 323 l 1,0,-1
EndSplineSet
EndChar

StartChar: period
Encoding: 46 46 15
Width: 182
Flags: W
LayerCount: 2
Fore
SplineSet
6 5 m 1,0,-1
 22 93 l 1,1,-1
 91 93 l 1,2,-1
 75 5 l 1,3,-1
 6 5 l 1,0,-1
EndSplineSet
EndChar

StartChar: slash
Encoding: 47 47 16
Width: 262
Flags: W
LayerCount: 2
Fore
SplineSet
223 699 m 1,0,-1
 283 699 l 1,1,-1
 59 1 l 1,2,-1
 -1 1 l 1,3,-1
 223 699 l 1,0,-1
EndSplineSet
EndChar

StartChar: zero
Encoding: 48 48 17
Width: 439
Flags: W
LayerCount: 2
Fore
SplineSet
159 44 m 2,0,-1
 191 44 l 2,1,2
 225 44 225 44 253.5 69.5 c 128,-1,3
 282 95 282 95 289 131 c 2,4,-1
 357 518 l 2,5,6
 360 538 360 538 355 553.5 c 128,-1,7
 350 569 350 569 339 579.5 c 128,-1,8
 328 590 328 590 312 595.5 c 128,-1,9
 296 601 296 601 278 601 c 0,10,11
 257 601 257 601 238 597 c 128,-1,12
 219 593 219 593 203 583 c 128,-1,13
 187 573 187 573 176 557.5 c 128,-1,14
 165 542 165 542 161 518 c 2,15,-1
 93 131 l 2,16,17
 86 95 86 95 105 69.5 c 128,-1,18
 124 44 124 44 159 44 c 2,0,-1
408 518 m 2,19,-1
 339 128 l 2,20,21
 334 99 334 99 319 74 c 128,-1,22
 304 49 304 49 283 30.5 c 128,-1,23
 262 12 262 12 236 1.5 c 128,-1,24
 210 -9 210 -9 182 -9 c 2,25,-1
 149 -9 l 2,26,27
 121 -9 121 -9 99 1.5 c 128,-1,28
 77 12 77 12 62 30.5 c 128,-1,29
 47 49 47 49 41.5 74 c 128,-1,30
 36 99 36 99 41 128 c 2,31,-1
 110 518 l 2,32,33
 115 547 115 547 130 572 c 128,-1,34
 145 597 145 597 166 615.5 c 128,-1,35
 187 634 187 634 213 644.5 c 128,-1,36
 239 655 239 655 267 655 c 2,37,-1
 300 655 l 2,38,39
 327 655 327 655 349.5 644.5 c 128,-1,40
 372 634 372 634 386.5 615.5 c 128,-1,41
 401 597 401 597 407 572 c 128,-1,42
 413 547 413 547 408 518 c 2,19,-1
EndSplineSet
EndChar

StartChar: one
Encoding: 49 49 18
Width: 212
Flags: W
LayerCount: 2
Fore
SplineSet
137 623 m 1,0,-1
 195 650 l 1,1,-1
 81 1 l 1,2,-1
 28 1 l 1,3,-1
 137 623 l 1,0,-1
EndSplineSet
EndChar

StartChar: two
Encoding: 50 50 19
Width: 397
Flags: W
LayerCount: 2
Fore
SplineSet
273 366 m 1,0,1
 294 389 294 389 304.5 413 c 128,-1,2
 315 437 315 437 321 466 c 1,3,4
 324 493 324 493 320 517.5 c 128,-1,5
 316 542 316 542 305 560.5 c 128,-1,6
 294 579 294 579 276 590 c 128,-1,7
 258 601 258 601 233 601 c 0,8,9
 228 601 228 601 221 599.5 c 128,-1,10
 214 598 214 598 200.5 593.5 c 128,-1,11
 187 589 187 589 164 580.5 c 128,-1,12
 141 572 141 572 104 558 c 1,13,-1
 90 610 l 1,14,-1
 172 641 l 2,15,16
 188 647 188 647 209 651 c 128,-1,17
 230 655 230 655 245 656 c 1,18,19
 280 656 280 656 307 641 c 128,-1,20
 334 626 334 626 351.5 600.5 c 128,-1,21
 369 575 369 575 375.5 541.5 c 128,-1,22
 382 508 382 508 375 469 c 0,23,24
 369 434 369 434 357.5 405 c 128,-1,25
 346 376 346 376 316 344 c 1,26,27
 281 297 281 297 239 246 c 128,-1,28
 197 195 197 195 162 153 c 0,29,30
 120 103 120 103 79 56 c 1,31,-1
 300 56 l 1,32,-1
 291 0 l 1,33,-1
 13 0 l 1,34,-1
 24 65 l 1,35,-1
 273 366 l 1,0,1
EndSplineSet
EndChar

StartChar: three
Encoding: 51 51 20
Width: 414
Flags: W
LayerCount: 2
Fore
SplineSet
102 610 m 1,0,-1
 178 639 l 2,1,2
 195 646 195 646 219.5 651 c 128,-1,3
 244 656 244 656 258 656 c 0,4,5
 294 655 294 655 320.5 641 c 128,-1,6
 347 627 347 627 363 603 c 128,-1,7
 379 579 379 579 384.5 546 c 128,-1,8
 390 513 390 513 383 474 c 0,9,10
 375 433 375 433 356 401.5 c 128,-1,11
 337 370 337 370 293 336 c 1,12,13
 313 319 313 319 322.5 299.5 c 128,-1,14
 332 280 332 280 335 259.5 c 128,-1,15
 338 239 338 239 335.5 217.5 c 128,-1,16
 333 196 333 196 330 176 c 0,17,18
 323 137 323 137 304.5 103.5 c 128,-1,19
 286 70 286 70 259.5 45 c 128,-1,20
 233 20 233 20 201 5 c 128,-1,21
 169 -10 169 -10 134 -10 c 1,22,23
 119 -9 119 -9 99.5 -5 c 128,-1,24
 80 -1 80 -1 65 5 c 2,25,-1
 1 32 l 1,26,-1
 25 86 l 1,27,-1
 100 51 l 2,28,29
 110 47 110 47 120.5 44 c 128,-1,30
 131 41 131 41 141 41 c 0,31,32
 166 41 166 41 188.5 52.5 c 128,-1,33
 211 64 211 64 229.5 83.5 c 128,-1,34
 248 103 248 103 261 128 c 128,-1,35
 274 153 274 153 280 180 c 1,36,37
 284 207 284 207 282.5 231 c 128,-1,38
 281 255 281 255 271 273.5 c 128,-1,39
 261 292 261 292 242 303 c 128,-1,40
 223 314 223 314 194 314 c 2,41,-1
 137 314 l 1,42,-1
 146 363 l 1,43,-1
 204 363 l 2,44,45
 263 363 263 363 293 396.5 c 128,-1,46
 323 430 323 430 334 483 c 1,47,48
 337 510 337 510 330.5 532 c 128,-1,49
 324 554 324 554 311.5 569.5 c 128,-1,50
 299 585 299 585 281.5 593.5 c 128,-1,51
 264 602 264 602 246 602 c 0,52,53
 236 602 236 602 220.5 599.5 c 128,-1,54
 205 597 205 597 194 592 c 2,55,-1
 115 559 l 1,56,-1
 102 610 l 1,0,-1
EndSplineSet
EndChar

StartChar: four
Encoding: 52 52 21
Width: 396
Flags: W
LayerCount: 2
Fore
SplineSet
235 0 m 1,0,-1
 269 195 l 1,1,-1
 16 195 l 1,2,-1
 26 254 l 1,3,-1
 247 650 l 1,4,-1
 302 650 l 1,5,-1
 83 249 l 1,6,-1
 278 249 l 1,7,-1
 299 363 l 1,8,-1
 352 363 l 1,9,-1
 288 0 l 1,10,-1
 235 0 l 1,0,-1
EndSplineSet
EndChar

StartChar: five
Encoding: 53 53 22
Width: 429
Flags: W
LayerCount: 2
Fore
SplineSet
363 195 m 1,0,1
 355 153 355 153 338.5 116.5 c 128,-1,2
 322 80 322 80 297.5 52 c 128,-1,3
 273 24 273 24 240 8 c 128,-1,4
 207 -8 207 -8 168 -8 c 0,5,6
 148 -8 148 -8 121.5 -2 c 128,-1,7
 95 4 95 4 71.5 11 c 128,-1,8
 48 18 48 18 32 24.5 c 128,-1,9
 16 31 16 31 16 31 c 1,10,-1
 44 88 l 1,11,12
 66 77 66 77 90 69 c 0,13,14
 110 62 110 62 133 56.5 c 128,-1,15
 156 51 156 51 176 51 c 0,16,17
 204 51 204 51 226 62.5 c 128,-1,18
 248 74 248 74 264 94 c 128,-1,19
 280 114 280 114 291 140 c 128,-1,20
 302 166 302 166 307 195 c 2,21,-1
 312 224 l 2,22,23
 317 253 317 253 315.5 279 c 128,-1,24
 314 305 314 305 304.5 324.5 c 128,-1,25
 295 344 295 344 277 355.5 c 128,-1,26
 259 367 259 367 231 367 c 2,27,-1
 77 367 l 1,28,-1
 127 650 l 1,29,-1
 387 650 l 1,30,-1
 378 598 l 1,31,-1
 177 598 l 1,32,-1
 146 421 l 1,33,-1
 242 421 l 2,34,35
 282 421 282 421 309.5 406 c 128,-1,36
 337 391 337 391 352.5 364.5 c 128,-1,37
 368 338 368 338 371.5 302 c 128,-1,38
 375 266 375 266 368 224 c 2,39,-1
 363 195 l 1,40,-1
 363 195 l 1,0,1
EndSplineSet
EndChar

StartChar: six
Encoding: 54 54 23
Width: 421
Flags: W
LayerCount: 2
Fore
SplineSet
247 362 m 2,0,-1
 215 362 l 2,1,2
 198 362 198 362 182 355 c 128,-1,3
 166 348 166 348 152.5 336.5 c 128,-1,4
 139 325 139 325 130 309 c 128,-1,5
 121 293 121 293 118 275 c 2,6,-1
 92 126 l 2,7,8
 88 105 88 105 93.5 89 c 128,-1,9
 99 73 99 73 110.5 62.5 c 128,-1,10
 122 52 122 52 139 47 c 128,-1,11
 156 42 156 42 176 42 c 0,12,13
 214 42 214 42 247 61.5 c 128,-1,14
 280 81 280 81 288 126 c 2,15,-1
 314 275 l 2,16,17
 320 311 320 311 300.5 336.5 c 128,-1,18
 281 362 281 362 247 362 c 2,0,-1
182 -7 m 2,19,-1
 149 -7 l 2,20,21
 122 -7 122 -7 99.5 3.5 c 128,-1,22
 77 14 77 14 62.5 32.5 c 128,-1,23
 48 51 48 51 42 76 c 128,-1,24
 36 101 36 101 41 130 c 2,25,-1
 107 504 l 2,26,27
 113 537 113 537 130 565 c 128,-1,28
 147 593 147 593 171.5 613.5 c 128,-1,29
 196 634 196 634 226.5 645 c 128,-1,30
 257 656 257 656 289 656 c 0,31,32
 294 656 294 656 309 653 c 128,-1,33
 324 650 324 650 340 646 c 0,34,35
 358 642 358 642 380 636 c 1,36,-1
 357 589 l 1,37,38
 339 594 339 594 323 598 c 0,39,40
 309 601 309 601 297 604 c 128,-1,41
 285 607 285 607 281 607 c 0,42,43
 260 607 260 607 239 599.5 c 128,-1,44
 218 592 218 592 201 578.5 c 128,-1,45
 184 565 184 565 172 546 c 128,-1,46
 160 527 160 527 156 504 c 2,47,-1
 135 385 l 1,48,49
 149 395 149 395 167 400.5 c 128,-1,50
 185 406 185 406 202 409 c 128,-1,51
 219 412 219 412 233.5 412.5 c 128,-1,52
 248 413 248 413 256 413 c 0,53,54
 284 413 284 413 306 402 c 128,-1,55
 328 391 328 391 343 371.5 c 128,-1,56
 358 352 358 352 363.5 326.5 c 128,-1,57
 369 301 369 301 364 272 c 2,58,-1
 339 130 l 2,59,60
 334 101 334 101 319.5 76 c 128,-1,61
 305 51 305 51 283.5 32.5 c 128,-1,62
 262 14 262 14 236 3.5 c 128,-1,63
 210 -7 210 -7 182 -7 c 2,19,-1
EndSplineSet
EndChar

StartChar: seven
Encoding: 55 55 24
Width: 362
Flags: W
LayerCount: 2
Fore
SplineSet
96 650 m 1,0,-1
 388 650 l 1,1,-1
 377 585 l 1,2,-1
 89 0 l 1,3,-1
 32 0 l 1,4,-1
 324 599 l 1,5,-1
 87 599 l 1,6,-1
 96 650 l 1,0,-1
EndSplineSet
EndChar

StartChar: eight
Encoding: 56 56 25
Width: 434
Flags: W
LayerCount: 2
Fore
SplineSet
156 39 m 2,0,-1
 188 39 l 2,1,2
 223 39 223 39 251.5 65 c 128,-1,3
 280 91 280 91 287 128 c 2,4,-1
 300 204 l 2,5,6
 308 247 308 247 281 267.5 c 128,-1,7
 254 288 254 288 214 288 c 0,8,9
 175 288 175 288 142.5 268 c 128,-1,10
 110 248 110 248 102 204 c 2,11,-1
 89 128 l 2,12,13
 82 91 82 91 101.5 65 c 128,-1,14
 121 39 121 39 156 39 c 2,0,-1
212 355 m 2,15,-1
 244 355 l 2,16,17
 279 355 279 355 307.5 381 c 128,-1,18
 336 407 336 407 343 444 c 2,19,-1
 357 522 l 2,20,21
 360 542 360 542 355 557.5 c 128,-1,22
 350 573 350 573 339 584 c 128,-1,23
 328 595 328 595 312 600.5 c 128,-1,24
 296 606 296 606 277 606 c 0,25,26
 256 606 256 606 236.5 601.5 c 128,-1,27
 217 597 217 597 201.5 587.5 c 128,-1,28
 186 578 186 578 174.5 562 c 128,-1,29
 163 546 163 546 159 522 c 2,30,-1
 145 444 l 2,31,32
 138 407 138 407 157.5 381 c 128,-1,33
 177 355 177 355 212 355 c 2,15,-1
139 323 m 1,34,35
 113 340 113 340 99.5 371.5 c 128,-1,36
 86 403 86 403 93 441 c 2,37,-1
 108 527 l 2,38,39
 114 563 114 563 131.5 587.5 c 128,-1,40
 149 612 149 612 173.5 627 c 128,-1,41
 198 642 198 642 227.5 648.5 c 128,-1,42
 257 655 257 655 288 655 c 0,43,44
 316 655 316 655 340.5 646 c 128,-1,45
 365 637 365 637 381.5 620.5 c 128,-1,46
 398 604 398 604 405.5 580.5 c 128,-1,47
 413 557 413 557 407 527 c 2,48,-1
 392 441 l 2,49,50
 385 402 385 402 360.5 370.5 c 128,-1,51
 336 339 336 339 302 322 c 1,52,53
 331 306 331 306 345 277.5 c 128,-1,54
 359 249 359 249 352 210 c 2,55,-1
 337 125 l 2,56,57
 332 98 332 98 318 73.5 c 128,-1,58
 304 49 304 49 284 30.5 c 128,-1,59
 264 12 264 12 239 1.5 c 128,-1,60
 214 -9 214 -9 188 -9 c 2,61,-1
 140 -9 l 2,62,63
 114 -9 114 -9 93 1.5 c 128,-1,64
 72 12 72 12 58 30.5 c 128,-1,65
 44 49 44 49 38.5 73.5 c 128,-1,66
 33 98 33 98 38 125 c 2,67,-1
 53 210 l 2,68,69
 60 248 60 248 83.5 278 c 128,-1,70
 107 308 107 308 139 323 c 1,34,35
EndSplineSet
EndChar

StartChar: nine
Encoding: 57 57 26
Width: 429
Flags: W
LayerCount: 2
Fore
SplineSet
195 299 m 2,0,-1
 227 299 l 2,1,2
 261 299 261 299 289.5 324.5 c 128,-1,3
 318 350 318 350 325 386 c 2,4,-1
 349 523 l 2,5,6
 352 543 352 543 347 558.5 c 128,-1,7
 342 574 342 574 331 584.5 c 128,-1,8
 320 595 320 595 304 600.5 c 128,-1,9
 288 606 288 606 270 606 c 0,10,11
 249 606 249 606 230 602 c 128,-1,12
 211 598 211 598 195 588 c 128,-1,13
 179 578 179 578 168 562.5 c 128,-1,14
 157 547 157 547 153 523 c 2,15,-1
 129 386 l 2,16,17
 122 350 122 350 141 324.5 c 128,-1,18
 160 299 160 299 195 299 c 2,0,-1
258 656 m 2,19,-1
 291 656 l 2,20,21
 318 656 318 656 340.5 645.5 c 128,-1,22
 363 635 363 635 377.5 616.5 c 128,-1,23
 392 598 392 598 398 573 c 128,-1,24
 404 548 404 548 399 519 c 2,25,-1
 332 141 l 2,26,27
 326 108 326 108 309 80 c 128,-1,28
 292 52 292 52 267.5 31.5 c 128,-1,29
 243 11 243 11 213 0 c 128,-1,30
 183 -11 183 -11 151 -11 c 0,31,32
 146 -11 146 -11 123.5 -6 c 128,-1,33
 101 -1 101 -1 77 5 c 0,34,35
 48 12 48 12 14 21 c 1,36,-1
 36 68 l 1,37,38
 68 59 68 59 94 53 c 0,39,40
 116 47 116 47 135.5 42.5 c 128,-1,41
 155 38 155 38 159 38 c 0,42,43
 180 38 180 38 200.5 45.5 c 128,-1,44
 221 53 221 53 238 66.5 c 128,-1,45
 255 80 255 80 267 99 c 128,-1,46
 279 118 279 118 283 141 c 2,47,-1
 307 276 l 1,48,49
 296 267 296 267 279 261.5 c 128,-1,50
 262 256 262 256 244.5 253 c 128,-1,51
 227 250 227 250 211 249 c 128,-1,52
 195 248 195 248 186 248 c 0,53,54
 158 248 158 248 136 259 c 128,-1,55
 114 270 114 270 99.5 289.5 c 128,-1,56
 85 309 85 309 79 334.5 c 128,-1,57
 73 360 73 360 78 389 c 2,58,-1
 101 519 l 2,59,60
 106 548 106 548 121 573 c 128,-1,61
 136 598 136 598 157 616.5 c 128,-1,62
 178 635 178 635 204 645.5 c 128,-1,63
 230 656 230 656 258 656 c 2,19,-1
EndSplineSet
EndChar

StartChar: colon
Encoding: 58 58 27
Width: 193
Flags: W
LayerCount: 2
Fore
SplineSet
136 321 m 1,0,-1
 67 321 l 1,1,-1
 83 411 l 1,2,-1
 152 411 l 1,3,-1
 136 321 l 1,0,-1
79 1 m 1,4,-1
 10 1 l 1,5,-1
 25 89 l 1,6,-1
 94 89 l 1,7,-1
 79 1 l 1,4,-1
EndSplineSet
EndChar

StartChar: semicolon
Encoding: 59 59 28
Width: 220
Flags: W
LayerCount: 2
Fore
SplineSet
106 46 m 2,0,1
 96 -10 96 -10 67.5 -44 c 128,-1,2
 39 -78 39 -78 -3 -94 c 1,3,-1
 -25 -36 l 1,4,5
 -6 -28 -6 -28 12 -8.5 c 128,-1,6
 30 11 30 11 37 47 c 2,7,-1
 46 98 l 1,8,-1
 115 98 l 1,9,-1
 106 46 l 2,0,1
85 321 m 1,10,-1
 101 411 l 1,11,-1
 170 411 l 1,12,-1
 154 321 l 1,13,-1
 85 321 l 1,10,-1
EndSplineSet
EndChar

StartChar: less
Encoding: 60 60 29
Width: 492
Flags: W
LayerCount: 2
Fore
SplineSet
407 225 m 1,0,-1
 398 171 l 1,1,-1
 47 260 l 1,2,-1
 62 345 l 1,3,-1
 443 430 l 1,4,-1
 434 375 l 1,5,-1
 261 339 l 2,6,7
 245 335 245 335 222 330.5 c 128,-1,8
 199 326 199 326 177 321 c 0,9,10
 151 316 151 316 124 310 c 1,11,-1
 121 290 l 1,12,13
 121 290 121 290 135.5 286.5 c 128,-1,14
 150 283 150 283 170.5 279 c 128,-1,15
 191 275 191 275 213 270 c 128,-1,16
 235 265 235 265 249 262 c 2,17,-1
 407 225 l 1,0,-1
EndSplineSet
EndChar

StartChar: equal
Encoding: 61 61 30
Width: 485
Flags: W
LayerCount: 2
Fore
SplineSet
84 370 m 1,0,-1
 95 434 l 1,1,-1
 438 434 l 1,2,-1
 427 370 l 1,3,-1
 84 370 l 1,0,-1
49 175 m 1,4,-1
 61 239 l 1,5,-1
 404 239 l 1,6,-1
 392 175 l 1,7,-1
 49 175 l 1,4,-1
EndSplineSet
EndChar

StartChar: greater
Encoding: 62 62 31
Width: 490
Flags: W
LayerCount: 2
Fore
SplineSet
232 267 m 2,0,1
 247 270 247 270 270.5 275 c 128,-1,2
 294 280 294 280 316 284 c 128,-1,3
 338 288 338 288 354 291.5 c 128,-1,4
 370 295 370 295 370 295 c 1,5,-1
 373 315 l 1,6,7
 348 321 348 321 324 326 c 0,8,9
 304 331 304 331 282 335.5 c 128,-1,10
 260 340 260 340 246 344 c 2,11,-1
 87 380 l 1,12,-1
 96 435 l 1,13,-1
 447 350 l 1,14,-1
 432 265 l 1,15,-1
 51 176 l 1,16,-1
 60 230 l 1,17,-1
 232 267 l 2,0,1
EndSplineSet
EndChar

StartChar: question
Encoding: 63 63 32
Width: 426
Flags: W
LayerCount: 2
Fore
SplineSet
144 0 m 1,0,-1
 159 90 l 1,1,-1
 90 90 l 1,2,-1
 75 0 l 1,3,-1
 144 0 l 1,0,-1
429 539 m 0,4,5
 423 507 423 507 409.5 484 c 128,-1,6
 396 461 396 461 382 444 c 2,7,-1
 201 229 l 2,8,9
 189 215 189 215 179 199.5 c 128,-1,10
 169 184 169 184 165 161 c 2,11,-1
 161 140 l 1,12,-1
 103 140 l 1,13,-1
 107 160 l 2,14,15
 113 195 113 195 125.5 218 c 128,-1,16
 138 241 138 241 153 258 c 2,17,-1
 325 462 l 2,18,19
 339 479 339 479 353.5 499 c 128,-1,20
 368 519 368 519 371 538 c 0,21,22
 376 564 376 564 366.5 585 c 128,-1,23
 357 606 357 606 340 620.5 c 128,-1,24
 323 635 323 635 302 643 c 128,-1,25
 281 651 281 651 263 651 c 0,26,27
 251 651 251 651 238 648 c 128,-1,28
 225 645 225 645 212 640 c 2,29,-1
 108 603 l 1,30,-1
 98 657 l 1,31,-1
 189 692 l 2,32,33
 207 699 207 699 232 704.5 c 128,-1,34
 257 710 257 710 273 710 c 0,35,36
 309 710 309 710 340.5 697.5 c 128,-1,37
 372 685 372 685 394 662.5 c 128,-1,38
 416 640 416 640 426 608.5 c 128,-1,39
 436 577 436 577 429 539 c 0,4,5
EndSplineSet
EndChar

StartChar: at
Encoding: 64 64 33
Width: 865
Flags: W
LayerCount: 2
Fore
SplineSet
843 401 m 0,0,1
 835 354 835 354 815 306 c 128,-1,2
 795 258 795 258 764.5 219 c 128,-1,3
 734 180 734 180 693.5 155 c 128,-1,4
 653 130 653 130 604 130 c 0,5,6
 570 130 570 130 549 152 c 128,-1,7
 528 174 528 174 528 209 c 1,8,9
 516 192 516 192 499.5 177.5 c 128,-1,10
 483 163 483 163 464 153 c 128,-1,11
 445 143 445 143 424.5 137.5 c 128,-1,12
 404 132 404 132 385 132 c 0,13,14
 347 132 347 132 320 146.5 c 128,-1,15
 293 161 293 161 277.5 185 c 128,-1,16
 262 209 262 209 258 241 c 128,-1,17
 254 273 254 273 260 308 c 0,18,19
 267 349 267 349 286 388 c 128,-1,20
 305 427 305 427 334.5 458 c 128,-1,21
 364 489 364 489 401.5 507.5 c 128,-1,22
 439 526 439 526 484 526 c 0,23,24
 519 526 519 526 546.5 509.5 c 128,-1,25
 574 493 574 493 583 460 c 1,26,-1
 606 517 l 1,27,-1
 643 517 l 1,28,-1
 576 253 l 2,29,30
 576 251 576 251 575.5 248.5 c 128,-1,31
 575 246 575 246 575 244 c 0,32,33
 569 212 569 212 579.5 192.5 c 128,-1,34
 590 173 590 173 617 173 c 0,35,36
 651 173 651 173 680.5 192.5 c 128,-1,37
 710 212 710 212 733.5 244.5 c 128,-1,38
 757 277 757 277 772.5 318 c 128,-1,39
 788 359 788 359 796 401 c 0,40,41
 808 471 808 471 792.5 526 c 128,-1,42
 777 581 777 581 740.5 619 c 128,-1,43
 704 657 704 657 648.5 676.5 c 128,-1,44
 593 696 593 696 526 696 c 0,45,46
 443 696 443 696 372 668.5 c 128,-1,47
 301 641 301 641 245.5 592 c 128,-1,48
 190 543 190 543 152.5 475 c 128,-1,49
 115 407 115 407 101 326 c 0,50,51
 88 254 88 254 101 190 c 128,-1,52
 114 126 114 126 149.5 79 c 128,-1,53
 185 32 185 32 241.5 4.5 c 128,-1,54
 298 -23 298 -23 372 -23 c 0,55,56
 438 -23 438 -23 503 -11.5 c 128,-1,57
 568 0 568 0 634 26 c 1,58,-1
 626 -21 l 1,59,60
 556 -49 556 -49 493.5 -59 c 128,-1,61
 431 -69 431 -69 361 -69 c 0,62,63
 276 -69 276 -69 211.5 -38.5 c 128,-1,64
 147 -8 147 -8 106.5 45.5 c 128,-1,65
 66 99 66 99 51.5 171 c 128,-1,66
 37 243 37 243 52 326 c 0,67,68
 68 418 68 418 110.5 494.5 c 128,-1,69
 153 571 153 571 216.5 626 c 128,-1,70
 280 681 280 681 360.5 711.5 c 128,-1,71
 441 742 441 742 534 742 c 0,72,73
 611 742 611 742 674 719 c 128,-1,74
 737 696 737 696 779.5 652 c 128,-1,75
 822 608 822 608 839.5 544.5 c 128,-1,76
 857 481 857 481 843 401 c 0,0,1
554 350 m 0,77,78
 558 376 558 376 557 400 c 128,-1,79
 556 424 556 424 546.5 442.5 c 128,-1,80
 537 461 537 461 518.5 472 c 128,-1,81
 500 483 500 483 470 483 c 0,82,83
 438 483 438 483 410.5 467 c 128,-1,84
 383 451 383 451 362 426 c 128,-1,85
 341 401 341 401 327 370 c 128,-1,86
 313 339 313 339 308 308 c 0,87,88
 303 280 303 280 305.5 255.5 c 128,-1,89
 308 231 308 231 318.5 213 c 128,-1,90
 329 195 329 195 347.5 184.5 c 128,-1,91
 366 174 366 174 394 174 c 0,92,93
 429 174 429 174 456.5 191 c 128,-1,94
 484 208 484 208 504 233.5 c 128,-1,95
 524 259 524 259 536.5 290 c 128,-1,96
 549 321 549 321 554 350 c 0,77,78
EndSplineSet
EndChar

StartChar: A
Encoding: 65 65 34
Width: 462
Flags: W
LayerCount: 2
Fore
SplineSet
314 255 m 1,0,-1
 299 635 l 1,1,-1
 286 635 l 1,2,-1
 136 255 l 1,3,-1
 314 255 l 1,4,-1
 314 255 l 1,0,-1
110 196 m 1,5,-1
 32 1 l 1,6,-1
 -22 1 l 1,7,-1
 261 701 l 1,8,-1
 346 701 l 1,9,-1
 383 1 l 1,10,-1
 330 1 l 1,11,-1
 319 196 l 1,12,-1
 110 196 l 1,13,-1
 110 196 l 1,5,-1
EndSplineSet
EndChar

StartChar: B
Encoding: 66 66 35
Width: 476
Flags: W
LayerCount: 2
Fore
SplineSet
140 327 m 1,0,-1
 93 58 l 1,1,-1
 219 58 l 2,2,3
 249 58 249 58 270.5 68.5 c 128,-1,4
 292 79 292 79 307.5 97 c 128,-1,5
 323 115 323 115 332 139 c 128,-1,6
 341 163 341 163 346 190 c 0,7,8
 351 218 351 218 350.5 243 c 128,-1,9
 350 268 350 268 341 286.5 c 128,-1,10
 332 305 332 305 314 316 c 128,-1,11
 296 327 296 327 266 327 c 2,12,-1
 140 327 l 1,0,-1
381 517 m 1,13,14
 384 544 384 544 380.5 568.5 c 128,-1,15
 377 593 377 593 368.5 608 c 128,-1,16
 360 623 360 623 351 632 c 0,17,18
 349 634 349 634 346 635 c 0,19,20
 345 635 345 635 346 636 c 1,21,22
 345 636 345 636 344 637 c 0,23,24
 339 640 339 640 329.5 646 c 128,-1,25
 320 652 320 652 295 652 c 0,26,27
 285 652 285 652 261.5 648 c 128,-1,28
 238 644 238 644 193 626 c 1,29,-1
 150 385 l 1,30,-1
 253 385 l 2,31,32
 283 385 283 385 305 395.5 c 128,-1,33
 327 406 327 406 342 424 c 128,-1,34
 357 442 357 442 366.5 466 c 128,-1,35
 376 490 376 490 381 517 c 1,13,14
314 710 m 0,36,37
 350 710 350 710 365.5 701 c 128,-1,38
 381 692 381 692 385 689 c 0,39,40
 406 675 406 675 421.5 650.5 c 128,-1,41
 437 626 437 626 443 592 c 128,-1,42
 449 558 449 558 442 521 c 0,43,44
 434 476 434 476 415.5 433 c 128,-1,45
 397 390 397 390 349 355 c 1,46,47
 373 337 373 337 386 317.5 c 128,-1,48
 399 298 399 298 404.5 278 c 128,-1,49
 410 258 410 258 409.5 236 c 128,-1,50
 409 214 409 214 405 190 c 0,51,52
 398 151 398 151 382 116.5 c 128,-1,53
 366 82 366 82 350.5 66 c 128,-1,54
 335 50 335 50 329 44 c 0,55,56
 308 26 308 26 279.5 13 c 128,-1,57
 251 0 251 0 209 0 c 2,58,-1
 27 0 l 1,59,-1
 145 671 l 1,60,61
 185 686 185 686 215 694 c 128,-1,62
 245 702 245 702 258 704 c 0,63,64
 288 710 288 710 314 710 c 0,36,37
EndSplineSet
EndChar

StartChar: C
Encoding: 67 67 36
Width: 437
Flags: W
LayerCount: 2
Fore
SplineSet
103 188 m 2,0,1
 97 156 97 156 103 130 c 128,-1,2
 109 104 109 104 124 86 c 128,-1,3
 139 68 139 68 161.5 57.5 c 128,-1,4
 184 47 184 47 210 46 c 0,5,6
 218 46 218 46 226.5 47.5 c 128,-1,7
 235 49 235 49 249.5 54 c 128,-1,8
 264 59 264 59 287 67.5 c 128,-1,9
 310 76 310 76 347 90 c 1,10,-1
 359 33 l 1,11,-1
 273 4 l 2,12,13
 255 -2 255 -2 234.5 -6 c 128,-1,14
 214 -10 214 -10 200 -10 c 0,15,16
 162 -10 162 -10 131 3.5 c 128,-1,17
 100 17 100 17 79 42 c 128,-1,18
 58 67 58 67 49 102.5 c 128,-1,19
 40 138 40 138 48 183 c 2,20,-1
 50 193 l 1,21,-1
 105 506 l 2,22,23
 112 548 112 548 133 584.5 c 128,-1,24
 154 621 154 621 175 640 c 0,25,26
 197 660 197 660 209.5 669.5 c 128,-1,27
 222 679 222 679 235 686 c 0,28,29
 246 691 246 691 268 700.5 c 128,-1,30
 290 710 290 710 329 710 c 0,31,32
 343 710 343 710 362 705 c 128,-1,33
 381 700 381 700 396 695 c 1,34,-1
 469 664 l 1,35,-1
 441 612 l 1,36,-1
 360 646 l 2,37,38
 351 650 351 650 340.5 653 c 128,-1,39
 330 656 330 656 320 656 c 0,40,41
 293 656 293 656 266.5 643.5 c 128,-1,42
 240 631 240 631 218.5 610 c 128,-1,43
 197 589 197 589 181.5 562 c 128,-1,44
 166 535 166 535 161 506 c 2,45,-1
 103 188 l 2,0,1
EndSplineSet
EndChar

StartChar: D
Encoding: 68 68 37
Width: 478
Flags: W
LayerCount: 2
Fore
SplineSet
140 671 m 1,0,1
 204 696 204 696 246 703 c 128,-1,2
 288 710 288 710 302 710 c 0,3,4
 341 710 341 710 371.5 693.5 c 128,-1,5
 402 677 402 677 421 649.5 c 128,-1,6
 440 622 440 622 447.5 585 c 128,-1,7
 455 548 455 548 448 507 c 2,8,-1
 391 185 l 2,9,10
 384 143 384 143 361.5 107.5 c 128,-1,11
 339 72 339 72 308 45.5 c 128,-1,12
 277 19 277 19 239.5 4.5 c 128,-1,13
 202 -10 202 -10 164 -10 c 0,14,15
 156 -10 156 -10 145.5 -9 c 128,-1,16
 135 -8 135 -8 118.5 -4.5 c 128,-1,17
 102 -1 102 -1 79.5 6.5 c 128,-1,18
 57 14 57 14 26 27 c 1,19,-1
 140 671 l 1,0,1
388 507 m 2,20,21
 396 552 396 552 381.5 585.5 c 128,-1,22
 367 619 367 619 344 635 c 1,23,24
 316 652 316 652 291 652 c 0,25,26
 268 652 268 652 239.5 642 c 128,-1,27
 211 632 211 632 187 623 c 1,28,-1
 90 73 l 1,29,30
 111 63 111 63 126 58 c 128,-1,31
 141 53 141 53 151.5 51 c 128,-1,32
 162 49 162 49 169.5 49 c 128,-1,33
 177 49 177 49 182 49 c 0,34,35
 207 49 207 49 232 61 c 128,-1,36
 257 73 257 73 278 93 c 128,-1,37
 299 113 299 113 314.5 139 c 128,-1,38
 330 165 330 165 335 194 c 2,39,-1
 388 507 l 2,20,21
EndSplineSet
EndChar

StartChar: E
Encoding: 69 69 38
Width: 407
Flags: W
LayerCount: 2
Fore
SplineSet
433 700 m 1,0,-1
 423 643 l 1,1,-1
 198 643 l 1,2,-1
 152 381 l 1,3,-1
 328 381 l 1,4,-1
 317 323 l 1,5,-1
 141 323 l 1,6,-1
 95 59 l 1,7,-1
 322 59 l 1,8,-1
 312 1 l 1,9,-1
 28 1 l 1,10,-1
 151 700 l 1,11,-1
 433 700 l 1,0,-1
EndSplineSet
EndChar

StartChar: F
Encoding: 70 70 39
Width: 389
Flags: W
LayerCount: 2
Fore
SplineSet
433 700 m 1,0,-1
 423 643 l 1,1,-1
 198 643 l 1,2,-1
 152 380 l 1,3,-1
 328 380 l 1,4,-1
 317 323 l 1,5,-1
 141 323 l 1,6,-1
 85 0 l 1,7,-1
 28 0 l 1,8,-1
 151 700 l 1,9,-1
 433 700 l 1,0,-1
EndSplineSet
EndChar

StartChar: G
Encoding: 71 71 40
Width: 448
Flags: W
LayerCount: 2
Fore
SplineSet
162 509 m 2,0,-1
 104 177 l 2,1,2
 99 149 99 149 105 125 c 128,-1,3
 111 101 111 101 126 83 c 128,-1,4
 141 65 141 65 162.5 54.5 c 128,-1,5
 184 44 184 44 209 44 c 0,6,7
 219 44 219 44 238.5 48 c 128,-1,8
 258 52 258 52 299 72 c 1,9,-1
 333 261 l 1,10,-1
 389 261 l 1,11,-1
 349 36 l 1,12,13
 287 6 287 6 249 -2 c 128,-1,14
 211 -10 211 -10 197 -10 c 0,15,16
 157 -10 157 -10 126 6 c 128,-1,17
 95 22 95 22 75.5 49.5 c 128,-1,18
 56 77 56 77 49 113.5 c 128,-1,19
 42 150 42 150 49 191 c 2,20,-1
 105 509 l 1,21,22
 126 603 126 603 185.5 656.5 c 128,-1,23
 245 710 245 710 326 710 c 1,24,25
 340 709 340 709 359 705 c 128,-1,26
 378 701 378 701 393 695 c 2,27,-1
 452 671 l 1,28,-1
 422 614 l 1,29,-1
 357 641 l 2,30,31
 333 651 333 651 315 651 c 0,32,33
 289 651 289 651 263.5 639.5 c 128,-1,34
 238 628 238 628 217 608.5 c 128,-1,35
 196 589 196 589 181.5 563 c 128,-1,36
 167 537 167 537 162 509 c 2,0,-1
EndSplineSet
EndChar

StartChar: H
Encoding: 72 72 41
Width: 516
Flags: W
LayerCount: 2
Fore
SplineSet
151 700 m 1,0,-1
 207 700 l 1,1,-1
 151 383 l 1,2,-1
 395 383 l 1,3,-1
 451 700 l 1,4,-1
 508 700 l 1,5,-1
 385 1 l 1,6,-1
 328 1 l 1,7,-1
 385 324 l 1,8,-1
 141 324 l 1,9,-1
 84 1 l 1,10,-1
 28 1 l 1,11,-1
 151 700 l 1,12,-1
 151 700 l 1,0,-1
EndSplineSet
EndChar

StartChar: I
Encoding: 73 73 42
Width: 211
Flags: W
LayerCount: 2
Fore
SplineSet
151 700 m 1,0,-1
 203 700 l 1,1,-1
 80 0 l 1,2,-1
 28 0 l 1,3,-1
 151 700 l 1,0,-1
EndSplineSet
EndChar

StartChar: J
Encoding: 74 74 43
Width: 309
Flags: W
LayerCount: 2
Fore
SplineSet
201 136 m 1,0,1
 194 94 194 94 184.5 66 c 128,-1,2
 175 38 175 38 159 21 c 128,-1,3
 143 4 143 4 118.5 -3 c 128,-1,4
 94 -10 94 -10 57 -10 c 0,5,6
 53 -10 53 -10 40.5 -9.5 c 128,-1,7
 28 -9 28 -9 13 -7.5 c 128,-1,8
 -2 -6 -2 -6 -15 -4.5 c 128,-1,9
 -28 -3 -28 -3 -35 -1 c 1,10,-1
 -13 58 l 1,11,12
 -9 57 -9 57 3 55.5 c 128,-1,13
 15 54 15 54 28 53 c 128,-1,14
 41 52 41 52 51.5 51 c 128,-1,15
 62 50 62 50 64 50 c 0,16,17
 77 50 77 50 89.5 52.5 c 128,-1,18
 102 55 102 55 112.5 63.5 c 128,-1,19
 123 72 123 72 131.5 87.5 c 128,-1,20
 140 103 140 103 144 129 c 2,21,-1
 245 700 l 1,22,-1
 301 700 l 1,23,-1
 201 136 l 1,24,-1
 201 136 l 1,0,1
EndSplineSet
EndChar

StartChar: K
Encoding: 75 75 44
Width: 393
Flags: W
LayerCount: 2
Fore
SplineSet
253 0 m 1,0,-1
 168 319 l 1,1,-1
 140 319 l 1,2,-1
 84 0 l 1,3,-1
 28 0 l 1,4,-1
 151 700 l 1,5,-1
 207 700 l 1,6,-1
 150 379 l 1,7,-1
 177 379 l 1,8,-1
 378 698 l 1,9,-1
 440 698 l 1,10,-1
 225 348 l 1,11,-1
 315 0 l 1,12,-1
 253 0 l 1,0,-1
EndSplineSet
EndChar

StartChar: L
Encoding: 76 76 45
Width: 375
Flags: W
LayerCount: 2
Fore
SplineSet
151 700 m 1,0,-1
 208 700 l 1,1,-1
 94 56 l 1,2,-1
 316 56 l 1,3,-1
 307 0 l 1,4,-1
 28 0 l 1,5,-1
 151 700 l 1,0,-1
EndSplineSet
EndChar

StartChar: M
Encoding: 77 77 46
Width: 611
Flags: W
LayerCount: 2
Fore
SplineSet
307 265 m 1,0,-1
 516 700 l 1,1,-1
 603 700 l 1,2,-1
 480 0 l 1,3,-1
 426 0 l 1,4,-1
 528 582 l 1,5,-1
 515 582 l 1,6,-1
 332 206 l 1,7,-1
 245 206 l 1,8,-1
 195 582 l 1,9,-1
 183 582 l 1,10,-1
 81 0 l 1,11,-1
 28 0 l 1,12,-1
 151 700 l 1,13,-1
 238 700 l 1,14,-1
 291 265 l 1,15,-1
 307 265 l 1,0,-1
EndSplineSet
EndChar

StartChar: N
Encoding: 78 78 47
Width: 557
Flags: W
LayerCount: 2
Fore
SplineSet
549 700 m 1,0,-1
 426 0 l 1,1,-1
 329 0 l 1,2,-1
 193 582 l 1,3,-1
 181 582 l 1,4,-1
 79 0 l 1,5,-1
 28 0 l 1,6,-1
 151 700 l 1,7,-1
 223 700 l 1,8,-1
 373 69 l 1,9,-1
 386 69 l 1,10,-1
 497 700 l 1,11,-1
 549 700 l 1,0,-1
EndSplineSet
EndChar

StartChar: O
Encoding: 79 79 48
Width: 521
Flags: W
LayerCount: 2
Fore
SplineSet
376 172 m 2,0,-1
 438 523 l 2,1,2
 445 563 445 563 433.5 587.5 c 128,-1,3
 422 612 422 612 403 625.5 c 128,-1,4
 384 639 384 639 361.5 643.5 c 128,-1,5
 339 648 339 648 323 648 c 256,6,7
 307 648 307 648 282.5 643 c 128,-1,8
 258 638 258 638 233.5 624.5 c 128,-1,9
 209 611 209 611 189.5 586.5 c 128,-1,10
 170 562 170 562 163 522 c 2,11,-1
 101 171 l 2,12,13
 94 131 94 131 105 107.5 c 128,-1,14
 116 84 116 84 136 71.5 c 128,-1,15
 156 59 156 59 179 55.5 c 128,-1,16
 202 52 202 52 218 52 c 256,17,18
 234 52 234 52 258 56 c 128,-1,19
 282 60 282 60 305.5 72.5 c 128,-1,20
 329 85 329 85 349 108.5 c 128,-1,21
 369 132 369 132 376 172 c 2,0,-1
431 172 m 2,22,23
 427 150 427 150 413 119 c 128,-1,24
 399 88 399 88 372 59.5 c 128,-1,25
 345 31 345 31 304 11 c 128,-1,26
 263 -9 263 -9 206 -9 c 0,27,28
 150 -9 150 -9 116.5 11 c 128,-1,29
 83 31 83 31 66.5 59.5 c 128,-1,30
 50 88 50 88 46.5 119 c 128,-1,31
 43 150 43 150 47 172 c 2,32,-1
 109 522 l 2,33,34
 112 544 112 544 126.5 576 c 128,-1,35
 141 608 141 608 168 637.5 c 128,-1,36
 195 667 195 667 236 688 c 128,-1,37
 277 709 277 709 334 709 c 0,38,39
 390 709 390 709 423 688 c 128,-1,40
 456 667 456 667 473 638 c 128,-1,41
 490 609 490 609 493.5 577 c 128,-1,42
 497 545 497 545 493 523 c 2,43,-1
 431 172 l 2,22,23
EndSplineSet
EndChar

StartChar: P
Encoding: 80 80 49
Width: 493
Flags: W
LayerCount: 2
Fore
SplineSet
306 652 m 0,0,1
 288 652 288 652 268 647.5 c 128,-1,2
 248 643 248 643 231 638 c 0,3,4
 211 632 211 632 191 625 c 1,5,-1
 141 344 l 1,6,-1
 252 344 l 2,7,8
 324 344 324 344 375 384 c 128,-1,9
 426 424 426 424 440 503 c 0,10,11
 454 581 454 581 415.5 616.5 c 128,-1,12
 377 652 377 652 306 652 c 0,0,1
325 710 m 0,13,14
 366 710 366 710 401 695.5 c 128,-1,15
 436 681 436 681 460 654 c 128,-1,16
 484 627 484 627 494.5 588.5 c 128,-1,17
 505 550 505 550 497 503 c 0,18,19
 489 455 489 455 466 415 c 128,-1,20
 443 375 443 375 410 346.5 c 128,-1,21
 377 318 377 318 335.5 302 c 128,-1,22
 294 286 294 286 249 286 c 2,23,-1
 130 286 l 1,24,-1
 80 0 l 1,25,-1
 27 0 l 1,26,-1
 145 671 l 1,27,28
 172 681 172 681 203 690 c 0,29,30
 229 698 229 698 261 704 c 128,-1,31
 293 710 293 710 325 710 c 0,13,14
EndSplineSet
EndChar

StartChar: Q
Encoding: 81 81 50
Width: 521
Flags: W
LayerCount: 2
Fore
SplineSet
435 521 m 2,0,1
 442 561 442 561 431.5 586 c 128,-1,2
 421 611 421 611 402 625.5 c 128,-1,3
 383 640 383 640 361 645.5 c 128,-1,4
 339 651 339 651 323 651 c 256,5,6
 307 651 307 651 283 645.5 c 128,-1,7
 259 640 259 640 235 626 c 128,-1,8
 211 612 211 612 191.5 587 c 128,-1,9
 172 562 172 562 165 522 c 2,10,-1
 103 171 l 2,11,12
 96 131 96 131 107 107.5 c 128,-1,13
 118 84 118 84 137.5 71.5 c 128,-1,14
 157 59 157 59 179.5 55.5 c 128,-1,15
 202 52 202 52 218 52 c 256,16,17
 234 52 234 52 257.5 55.5 c 128,-1,18
 281 59 281 59 304.5 71.5 c 128,-1,19
 328 84 328 84 347.5 107.5 c 128,-1,20
 367 131 367 131 374 171 c 2,21,-1
 435 521 l 2,0,1
431 171 m 2,22,23
 427 151 427 151 415.5 124 c 128,-1,24
 404 97 404 97 382.5 71 c 128,-1,25
 361 45 361 45 329.5 24 c 128,-1,26
 298 3 298 3 254 -5 c 1,27,28
 259 -29 259 -29 281 -40 c 1,29,-1
 254 -101 l 1,30,31
 227 -89 227 -89 210 -66.5 c 128,-1,32
 193 -44 193 -44 190 -9 c 1,33,34
 139 -6 139 -6 109.5 14.5 c 128,-1,35
 80 35 80 35 64.5 63 c 128,-1,36
 49 91 49 91 46 121 c 128,-1,37
 43 151 43 151 47 172 c 2,38,-1
 108 521 l 2,39,40
 112 543 112 543 126.5 575 c 128,-1,41
 141 607 141 607 168 637 c 128,-1,42
 195 667 195 667 236 688 c 128,-1,43
 277 709 277 709 334 709 c 0,44,45
 390 709 390 709 423 688 c 128,-1,46
 456 667 456 667 473 637 c 128,-1,47
 490 607 490 607 493 575 c 128,-1,48
 496 543 496 543 492 521 c 2,49,-1
 431 171 l 2,22,23
EndSplineSet
EndChar

StartChar: R
Encoding: 82 82 51
Width: 507
Flags: W
LayerCount: 2
Fore
SplineSet
306 652 m 0,0,1
 288 652 288 652 268 648 c 128,-1,2
 248 644 248 644 231 639 c 0,3,4
 211 633 211 633 191 626 c 1,5,-1
 141 345 l 1,6,-1
 252 345 l 2,7,8
 324 345 324 345 375.5 388 c 128,-1,9
 427 431 427 431 441 510 c 0,10,11
 448 549 448 549 441 576 c 128,-1,12
 434 603 434 603 416 620 c 128,-1,13
 398 637 398 637 369.5 644.5 c 128,-1,14
 341 652 341 652 306 652 c 0,0,1
347 305 m 1,15,-1
 418 0 l 1,16,-1
 362 0 l 1,17,-1
 289 290 l 1,18,19
 269 287 269 287 249 287 c 2,20,-1
 130 287 l 1,21,-1
 80 0 l 1,22,-1
 27 0 l 1,23,-1
 145 671 l 1,24,25
 173 681 173 681 204 690 c 0,26,27
 230 698 230 698 262 704 c 128,-1,28
 294 710 294 710 325 710 c 0,29,30
 366 710 366 710 401.5 696.5 c 128,-1,31
 437 683 437 683 461.5 657.5 c 128,-1,32
 486 632 486 632 496.5 595 c 128,-1,33
 507 558 507 558 498 510 c 0,34,35
 492 476 492 476 478 443.5 c 128,-1,36
 464 411 464 411 444.5 384 c 128,-1,37
 425 357 425 357 400 336.5 c 128,-1,38
 375 316 375 316 347 305 c 1,15,-1
EndSplineSet
EndChar

StartChar: S
Encoding: 83 83 52
Width: 468
Flags: W
LayerCount: 2
Fore
SplineSet
425 205 m 0,0,1
 417 163 417 163 396 126 c 128,-1,2
 375 89 375 89 344.5 61.5 c 128,-1,3
 314 34 314 34 276.5 17.5 c 128,-1,4
 239 1 239 1 199 1 c 0,5,6
 160 1 160 1 124.5 11 c 128,-1,7
 89 21 89 21 62 33 c 0,8,9
 30 47 30 47 3 66 c 1,10,-1
 33 121 l 1,11,12
 63 103 63 103 94 90 c 0,13,14
 120 79 120 79 151 69.5 c 128,-1,15
 182 60 182 60 208 60 c 0,16,17
 236 60 236 60 262.5 71 c 128,-1,18
 289 82 289 82 310 101.5 c 128,-1,19
 331 121 331 121 346 147 c 128,-1,20
 361 173 361 173 366 203 c 0,21,22
 372 234 372 234 361.5 254.5 c 128,-1,23
 351 275 351 275 332 288.5 c 128,-1,24
 313 302 313 302 288 309.5 c 128,-1,25
 263 317 263 317 239 321 c 0,26,27
 203 327 203 327 173 342 c 128,-1,28
 143 357 143 357 123 381 c 128,-1,29
 103 405 103 405 94.5 437 c 128,-1,30
 86 469 86 469 93 509 c 0,31,32
 100 550 100 550 121.5 586.5 c 128,-1,33
 143 623 143 623 173 650.5 c 128,-1,34
 203 678 203 678 240 694 c 128,-1,35
 277 710 277 710 315 710 c 0,36,37
 339 710 339 710 364 704.5 c 128,-1,38
 389 699 389 699 409 693 c 0,39,40
 433 685 433 685 455 676 c 1,41,-1
 426 620 l 1,42,43
 405 629 405 629 384 636 c 0,44,45
 366 642 366 642 344 647 c 128,-1,46
 322 652 322 652 302 652 c 0,47,48
 275 652 275 652 249.5 640.5 c 128,-1,49
 224 629 224 629 203.5 609.5 c 128,-1,50
 183 590 183 590 169 564.5 c 128,-1,51
 155 539 155 539 150 512 c 0,52,53
 144 481 144 481 152.5 457.5 c 128,-1,54
 161 434 161 434 178 418 c 128,-1,55
 195 402 195 402 217 392.5 c 128,-1,56
 239 383 239 383 260 379 c 0,57,58
 300 372 300 372 333.5 359 c 128,-1,59
 367 346 367 346 389.5 325.5 c 128,-1,60
 412 305 412 305 422 275 c 128,-1,61
 432 245 432 245 425 205 c 0,0,1
EndSplineSet
EndChar

StartChar: T
Encoding: 84 84 53
Width: 419
Flags: W
LayerCount: 2
Fore
SplineSet
471 700 m 1,0,-1
 461 646 l 1,1,-1
 301 646 l 1,2,-1
 188 0 l 1,3,-1
 134 0 l 1,4,-1
 247 646 l 1,5,-1
 81 646 l 1,6,-1
 91 700 l 1,7,-1
 471 700 l 1,8,-1
 471 700 l 1,0,-1
EndSplineSet
EndChar

StartChar: U
Encoding: 85 85 54
Width: 535
Flags: W
LayerCount: 2
Fore
SplineSet
223 43 m 0,0,1
 241 43 241 43 266 48.5 c 128,-1,2
 291 54 291 54 315 68.5 c 128,-1,3
 339 83 339 83 358 108 c 128,-1,4
 377 133 377 133 384 173 c 2,5,-1
 477 701 l 1,6,-1
 529 701 l 1,7,-1
 436 173 l 2,8,9
 431 144 431 144 416.5 112.5 c 128,-1,10
 402 81 402 81 375.5 54.5 c 128,-1,11
 349 28 349 28 309 10.5 c 128,-1,12
 269 -7 269 -7 214 -7 c 256,13,14
 159 -7 159 -7 125.5 10.5 c 128,-1,15
 92 28 92 28 74.5 54.5 c 128,-1,16
 57 81 57 81 54 112.5 c 128,-1,17
 51 144 51 144 56 173 c 2,18,-1
 149 701 l 1,19,-1
 201 701 l 1,20,-1
 108 173 l 2,21,22
 101 133 101 133 110.5 108 c 128,-1,23
 120 83 120 83 138 68.5 c 128,-1,24
 156 54 156 54 179 48.5 c 128,-1,25
 202 43 202 43 223 43 c 0,0,1
EndSplineSet
EndChar

StartChar: V
Encoding: 86 86 55
Width: 459
Flags: W
LayerCount: 2
Fore
SplineSet
446 700 m 1,0,-1
 502 700 l 1,1,-1
 217 0 l 1,2,-1
 132 0 l 1,3,-1
 98 700 l 1,4,-1
 153 700 l 1,5,-1
 180 66 l 1,6,-1
 193 66 l 1,7,8
 212 112 212 112 233 165 c 0,9,10
 251 210 251 210 273.5 266.5 c 128,-1,11
 296 323 296 323 320 383 c 0,12,13
 375 522 375 522 446 700 c 1,0,-1
EndSplineSet
EndChar

StartChar: W
Encoding: 87 87 56
Width: 612
Flags: W
LayerCount: 2
Fore
SplineSet
314 363 m 1,0,-1
 171 1 l 1,1,-1
 85 1 l 1,2,-1
 106 700 l 1,3,-1
 158 700 l 1,4,-1
 138 65 l 1,5,-1
 146 65 l 1,6,-1
 291 427 l 1,7,-1
 367 427 l 1,8,-1
 383 65 l 1,9,-1
 391 65 l 1,10,-1
 595 700 l 1,11,-1
 647 700 l 1,12,-1
 422 1 l 1,13,-1
 336 1 l 1,14,-1
 322 363 l 1,15,-1
 314 363 l 1,0,-1
EndSplineSet
EndChar

StartChar: X
Encoding: 88 88 57
Width: 452
Flags: W
LayerCount: 2
Fore
SplineSet
218 318 m 1,0,-1
 29 0 l 1,1,-1
 -27 0 l 1,2,-1
 180 347 l 1,3,-1
 96 700 l 1,4,-1
 152 700 l 1,5,-1
 232 378 l 1,6,-1
 249 378 l 1,7,-1
 443 700 l 1,8,-1
 499 700 l 1,9,-1
 291 347 l 1,10,-1
 375 0 l 1,11,-1
 318 0 l 1,12,-1
 242 318 l 1,13,-1
 218 318 l 1,0,-1
EndSplineSet
EndChar

StartChar: Y
Encoding: 89 89 58
Width: 436
Flags: W
LayerCount: 2
Fore
SplineSet
264 318 m 1,0,-1
 250 318 l 1,1,-1
 194 0 l 1,2,-1
 134 0 l 1,3,-1
 190 318 l 1,4,-1
 178 318 l 1,5,-1
 86 700 l 1,6,-1
 142 700 l 1,7,-1
 222 378 l 1,8,-1
 239 378 l 1,9,-1
 433 700 l 1,10,-1
 489 700 l 1,11,-1
 264 318 l 1,0,-1
EndSplineSet
EndChar

StartChar: Z
Encoding: 90 90 59
Width: 453
Flags: W
LayerCount: 2
Fore
SplineSet
391 627 m 1,0,-1
 394 641 l 1,1,-1
 118 641 l 1,2,-1
 128 700 l 1,3,-1
 478 700 l 1,4,-1
 468 642 l 1,5,-1
 69 75 l 1,6,-1
 66 59 l 1,7,-1
 381 59 l 1,8,-1
 371 0 l 1,9,-1
 -18 0 l 1,10,-1
 -7 66 l 1,11,-1
 391 627 l 1,0,-1
EndSplineSet
EndChar

StartChar: bracketleft
Encoding: 91 91 60
Width: 238
Flags: W
LayerCount: 2
Fore
SplineSet
1 -84 m 1,0,-1
 153 777 l 1,1,-1
 292 777 l 1,2,-1
 283 728 l 1,3,-1
 194 728 l 1,4,-1
 59 -35 l 1,5,-1
 148 -35 l 1,6,-1
 140 -84 l 1,7,-1
 1 -84 l 1,0,-1
EndSplineSet
EndChar

StartChar: backslash
Encoding: 92 92 61
Width: 383
Flags: W
LayerCount: 2
Fore
SplineSet
238 -57 m 1,0,-1
 114 768 l 1,1,-1
 168 768 l 1,2,-1
 291 -57 l 1,3,-1
 238 -57 l 1,0,-1
EndSplineSet
EndChar

StartChar: bracketright
Encoding: 93 93 62
Width: 238
Flags: W
LayerCount: 2
Fore
SplineSet
-35 -85 m 1,0,-1
 -27 -36 l 1,1,-1
 62 -36 l 1,2,-1
 197 727 l 1,3,-1
 108 727 l 1,4,-1
 116 776 l 1,5,-1
 255 776 l 1,6,-1
 104 -85 l 1,7,-1
 -35 -85 l 1,0,-1
EndSplineSet
EndChar

StartChar: grave
Encoding: 96 96 64
Width: 364
Flags: W
LayerCount: 2
Fore
SplineSet
309 589 m 1,0,-1
 229 736 l 1,1,-1
 290 736 l 1,2,-1
 361 589 l 1,3,-1
 309 589 l 1,0,-1
EndSplineSet
EndChar

StartChar: a
Encoding: 97 97 65
Width: 404
Flags: W
LayerCount: 2
Fore
SplineSet
284 243 m 2,0,1
 284 244 284 244 276 249.5 c 128,-1,2
 268 255 268 255 254 261.5 c 128,-1,3
 240 268 240 268 220 273.5 c 128,-1,4
 200 279 200 279 177 279 c 0,5,6
 160 279 160 279 143.5 272 c 128,-1,7
 127 265 127 265 113.5 253 c 128,-1,8
 100 241 100 241 90.5 225.5 c 128,-1,9
 81 210 81 210 78 192 c 2,10,-1
 67 129 l 2,11,12
 61 94 61 94 80.5 68.5 c 128,-1,13
 100 43 100 43 134 43 c 0,14,15
 149 43 149 43 169.5 48.5 c 128,-1,16
 190 54 190 54 209 61 c 0,17,18
 231 69 231 69 255 79 c 1,19,-1
 284 243 l 2,0,1
301 49 m 1,20,-1
 317 31 l 1,21,-1
 275 -5 l 1,22,-1
 252 22 l 1,23,24
 217 4 217 4 181.5 -3 c 128,-1,25
 146 -10 146 -10 126 -10 c 0,26,27
 98 -10 98 -10 75.5 1.5 c 128,-1,28
 53 13 53 13 38.5 32.5 c 128,-1,29
 24 52 24 52 18.5 78 c 128,-1,30
 13 104 13 104 18 133 c 2,31,-1
 28 189 l 2,32,33
 33 218 33 218 47.5 243.5 c 128,-1,34
 62 269 62 269 83.5 288 c 128,-1,35
 105 307 105 307 131.5 318 c 128,-1,36
 158 329 158 329 186 329 c 0,37,38
 193 329 193 329 207 328 c 128,-1,39
 221 327 221 327 237.5 324 c 128,-1,40
 254 321 254 321 269.5 315.5 c 128,-1,41
 285 310 285 310 296 301 c 1,42,-1
 302 335 l 2,43,44
 306 358 306 358 302 380.5 c 128,-1,45
 298 403 298 403 286.5 421 c 128,-1,46
 275 439 275 439 258 450 c 128,-1,47
 241 461 241 461 219 461 c 0,48,49
 211 461 211 461 189.5 456 c 128,-1,50
 168 451 168 451 145 446 c 0,51,52
 118 440 118 440 87 432 c 1,53,-1
 81 479 l 1,54,55
 115 487 115 487 144 494 c 0,56,57
 169 500 169 500 193 505 c 128,-1,58
 217 510 217 510 227 510 c 0,59,60
 259 510 259 510 284.5 495 c 128,-1,61
 310 480 310 480 326.5 455.5 c 128,-1,62
 343 431 343 431 350 399.5 c 128,-1,63
 357 368 357 368 351 335 c 2,64,-1
 301 49 l 1,20,-1
EndSplineSet
EndChar

StartChar: b
Encoding: 98 98 66
Width: 419
Flags: W
LayerCount: 2
Fore
SplineSet
77 79 m 1,0,1
 78 70 78 70 92 63.5 c 128,-1,2
 106 57 106 57 123.5 52.5 c 128,-1,3
 141 48 141 48 159 45.5 c 128,-1,4
 177 43 177 43 186 43 c 0,5,6
 203 43 203 43 219 50 c 128,-1,7
 235 57 235 57 248.5 68.5 c 128,-1,8
 262 80 262 80 271 95.5 c 128,-1,9
 280 111 280 111 283 129 c 2,10,-1
 326 372 l 2,11,12
 329 390 329 390 325.5 406 c 128,-1,13
 322 422 322 422 312.5 433.5 c 128,-1,14
 303 445 303 445 289 452 c 128,-1,15
 275 459 275 459 258 459 c 0,16,17
 249 459 249 459 234.5 457 c 128,-1,18
 220 455 220 455 202.5 450.5 c 128,-1,19
 185 446 185 446 168 439.5 c 128,-1,20
 151 433 151 433 138 424 c 1,21,-1
 77 79 l 1,0,1
147 482 m 1,22,23
 191 503 191 503 220.5 506.5 c 128,-1,24
 250 510 250 510 267 510 c 0,25,26
 295 510 295 510 317 499 c 128,-1,27
 339 488 339 488 354 468.5 c 128,-1,28
 369 449 369 449 375 423.5 c 128,-1,29
 381 398 381 398 376 369 c 2,30,-1
 334 133 l 2,31,32
 329 104 329 104 314 78 c 128,-1,33
 299 52 299 52 277.5 33 c 128,-1,34
 256 14 256 14 230 3 c 128,-1,35
 204 -8 204 -8 176 -8 c 0,36,37
 154 -8 154 -8 121.5 -1.5 c 128,-1,38
 89 5 89 5 60 23 c 1,39,-1
 28 -3 l 1,40,-1
 -1 32 l 1,41,-1
 22 52 l 1,42,-1
 136 700 l 1,43,-1
 186 700 l 1,44,-1
 147 482 l 1,22,23
EndSplineSet
EndChar

StartChar: c
Encoding: 99 99 67
Width: 346
Flags: W
LayerCount: 2
Fore
SplineSet
80 148 m 2,0,1
 75 124 75 124 80.5 104.5 c 128,-1,2
 86 85 86 85 98.5 71 c 128,-1,3
 111 57 111 57 129 49.5 c 128,-1,4
 147 42 147 42 169 42 c 0,5,6
 179 42 179 42 194.5 44.5 c 128,-1,7
 210 47 210 47 225 50 c 0,8,9
 243 54 243 54 261 59 c 1,10,-1
 269 13 l 1,11,12
 248 6 248 6 229 2 c 0,13,14
 212 -2 212 -2 193 -5 c 128,-1,15
 174 -8 174 -8 160 -8 c 0,16,17
 127 -8 127 -8 100.5 3.5 c 128,-1,18
 74 15 74 15 56.5 36 c 128,-1,19
 39 57 39 57 31.5 85.5 c 128,-1,20
 24 114 24 114 30 148 c 2,21,-1
 66 357 l 2,22,23
 72 391 72 391 89.5 419.5 c 128,-1,24
 107 448 107 448 132 468 c 128,-1,25
 157 488 157 488 187.5 499.5 c 128,-1,26
 218 511 218 511 251 511 c 0,27,28
 267 511 267 511 284 507 c 128,-1,29
 301 503 301 503 315 498 c 0,30,31
 332 493 332 493 347 486 c 1,32,-1
 328 443 l 1,33,34
 314 448 314 448 299 452 c 0,35,36
 286 456 286 456 271 459 c 128,-1,37
 256 462 256 462 242 462 c 0,38,39
 220 462 220 462 199.5 454.5 c 128,-1,40
 179 447 179 447 162 433 c 128,-1,41
 145 419 145 419 132.5 400 c 128,-1,42
 120 381 120 381 116 357 c 2,43,-1
 80 148 l 2,0,1
EndSplineSet
EndChar

StartChar: d
Encoding: 100 100 68
Width: 419
Flags: W
LayerCount: 2
Fore
SplineSet
265 78 m 1,0,-1
 326 423 l 1,1,2
 296 446 296 446 265.5 452 c 128,-1,3
 235 458 235 458 218 458 c 256,4,5
 201 458 201 458 184.5 451 c 128,-1,6
 168 444 168 444 154.5 432.5 c 128,-1,7
 141 421 141 421 132 405 c 128,-1,8
 123 389 123 389 120 371 c 2,9,-1
 77 128 l 2,10,11
 71 93 71 93 90.5 67.5 c 128,-1,12
 110 42 110 42 144 42 c 0,13,14
 153 42 153 42 171.5 44.5 c 128,-1,15
 190 47 190 47 209.5 51.5 c 128,-1,16
 229 56 229 56 244.5 62.5 c 128,-1,17
 260 69 260 69 265 78 c 1,0,-1
337 481 m 1,18,-1
 376 699 l 1,19,-1
 426 699 l 1,20,-1
 311 48 l 1,21,-1
 329 26 l 1,22,-1
 287 -9 l 1,23,-1
 262 21 l 1,24,25
 227 3 227 3 192 -3 c 128,-1,26
 157 -9 157 -9 136 -9 c 0,27,28
 108 -9 108 -9 86 2 c 128,-1,29
 64 13 64 13 49 32 c 128,-1,30
 34 51 34 51 28.5 77 c 128,-1,31
 23 103 23 103 28 132 c 2,32,-1
 69 368 l 2,33,34
 74 397 74 397 89 422.5 c 128,-1,35
 104 448 104 448 125.5 467.5 c 128,-1,36
 147 487 147 487 173 498 c 128,-1,37
 199 509 199 509 227 509 c 0,38,39
 244 509 244 509 272.5 505.5 c 128,-1,40
 301 502 301 502 337 481 c 1,18,-1
EndSplineSet
EndChar

StartChar: e
Encoding: 101 101 69
Width: 409
Flags: W
LayerCount: 2
Fore
SplineSet
217 241 m 1,0,-1
 219 241 l 2,1,2
 237 241 237 241 253.5 248.5 c 128,-1,3
 270 256 270 256 283.5 268.5 c 128,-1,4
 297 281 297 281 306 297 c 128,-1,5
 315 313 315 313 318 331 c 2,6,-1
 325 373 l 2,7,8
 329 397 329 397 323.5 413.5 c 128,-1,9
 318 430 318 430 304.5 440 c 128,-1,10
 291 450 291 450 272.5 454.5 c 128,-1,11
 254 459 254 459 233 459 c 0,12,13
 214 459 214 459 195.5 453 c 128,-1,14
 177 447 177 447 162 436 c 128,-1,15
 147 425 147 425 136.5 409 c 128,-1,16
 126 393 126 393 122 373 c 2,17,-1
 99 242 l 1,18,-1
 217 241 l 1,0,-1
69 368 m 2,19,20
 74 398 74 398 89 424 c 128,-1,21
 104 450 104 450 126 469 c 128,-1,22
 148 488 148 488 174.5 499 c 128,-1,23
 201 510 201 510 230 510 c 2,24,-1
 264 510 l 2,25,26
 292 510 292 510 315.5 499 c 128,-1,27
 339 488 339 488 354 469 c 128,-1,28
 369 450 369 450 375.5 424 c 128,-1,29
 382 398 382 398 376 368 c 1,30,-1
 371 335 l 1,31,32
 363 293 363 293 343 264.5 c 128,-1,33
 323 236 323 236 294 218 c 128,-1,34
 265 200 265 200 229 192.5 c 128,-1,35
 193 185 193 185 154 185 c 0,36,37
 138 185 138 185 122 186 c 128,-1,38
 106 187 106 187 90 189 c 1,39,-1
 79 129 l 1,40,41
 79 89 79 89 105.5 65.5 c 128,-1,42
 132 42 132 42 171 42 c 0,43,44
 175 42 175 42 197 46.5 c 128,-1,45
 219 51 219 51 244 56 c 0,46,47
 273 62 273 62 309 70 c 1,48,-1
 311 17 l 1,49,50
 273 9 273 9 242 4 c 0,51,52
 216 -1 216 -1 191.5 -5 c 128,-1,53
 167 -9 167 -9 162 -9 c 0,54,55
 130 -9 130 -9 103 2.5 c 128,-1,56
 76 14 76 14 58 35 c 128,-1,57
 40 56 40 56 32 84.5 c 128,-1,58
 24 113 24 113 30 147 c 2,59,-1
 69 368 l 2,19,20
EndSplineSet
EndChar

StartChar: f
Encoding: 102 102 70
Width: 287
Flags: W
LayerCount: 2
Fore
SplineSet
115 0 m 1,0,-1
 62 0 l 1,1,-1
 141 451 l 1,2,-1
 53 451 l 1,3,-1
 62 500 l 1,4,-1
 151 500 l 1,5,-1
 164 578 l 1,6,7
 177 648 177 648 216 678.5 c 128,-1,8
 255 709 255 709 305 709 c 2,9,-1
 323 709 l 1,10,-1
 313 655 l 1,11,-1
 300 655 l 2,12,13
 272 655 272 655 248 640 c 128,-1,14
 224 625 224 625 217 585 c 2,15,-1
 202 500 l 1,16,-1
 298 500 l 1,17,-1
 289 451 l 1,18,-1
 194 451 l 1,19,-1
 115 0 l 1,0,-1
EndSplineSet
EndChar

StartChar: g
Encoding: 103 103 71
Width: 419
Flags: W
LayerCount: 2
Fore
SplineSet
326 423 m 1,0,1
 324 432 324 432 310.5 438.5 c 128,-1,2
 297 445 297 445 279.5 449.5 c 128,-1,3
 262 454 262 454 244 456.5 c 128,-1,4
 226 459 226 459 217 459 c 0,5,6
 200 459 200 459 184 452 c 128,-1,7
 168 445 168 445 155 433.5 c 128,-1,8
 142 422 142 422 132.5 406.5 c 128,-1,9
 123 391 123 391 120 373 c 2,10,-1
 77 129 l 2,11,12
 71 93 71 93 90.5 67.5 c 128,-1,13
 110 42 110 42 145 42 c 0,14,15
 154 42 154 42 170 44.5 c 128,-1,16
 186 47 186 47 204 51.5 c 128,-1,17
 222 56 222 56 238.5 62.5 c 128,-1,18
 255 69 255 69 265 77 c 1,19,-1
 326 423 l 1,0,1
282 -117 m 2,20,21
 275 -154 275 -154 258 -181 c 128,-1,22
 241 -208 241 -208 216.5 -225 c 128,-1,23
 192 -242 192 -242 162.5 -250.5 c 128,-1,24
 133 -259 133 -259 101 -259 c 0,25,26
 86 -259 86 -259 62.5 -254 c 128,-1,27
 39 -249 39 -249 17 -243 c 0,28,29
 -9 -236 -9 -236 -36 -227 c 1,30,-1
 -13 -180 l 1,31,32
 13 -189 13 -189 37 -196 c 0,33,34
 57 -202 57 -202 77.5 -206.5 c 128,-1,35
 98 -211 98 -211 109 -211 c 0,36,37
 130 -211 130 -211 150.5 -205 c 128,-1,38
 171 -199 171 -199 187.5 -187.5 c 128,-1,39
 204 -176 204 -176 216 -158.5 c 128,-1,40
 228 -141 228 -141 232 -118 c 2,41,-1
 255 16 l 1,42,43
 217 -2 217 -2 190.5 -5.5 c 128,-1,44
 164 -9 164 -9 147 -9 c 2,45,-1
 136 -9 l 2,46,47
 108 -9 108 -9 86 2 c 128,-1,48
 64 13 64 13 49 32.5 c 128,-1,49
 34 52 34 52 28.5 77.5 c 128,-1,50
 23 103 23 103 28 132 c 2,51,-1
 70 369 l 2,52,53
 75 398 75 398 89.5 424 c 128,-1,54
 104 450 104 450 125.5 469 c 128,-1,55
 147 488 147 488 173 499 c 128,-1,56
 199 510 199 510 227 510 c 0,57,58
 250 510 250 510 279.5 503.5 c 128,-1,59
 309 497 309 497 343 480 c 1,60,-1
 378 510 l 1,61,-1
 408 474 l 1,62,-1
 382 453 l 1,63,-1
 282 -117 l 2,20,21
EndSplineSet
EndChar

StartChar: h
Encoding: 104 104 72
Width: 425
Flags: W
LayerCount: 2
Fore
SplineSet
261 0 m 1,0,-1
 326 372 l 2,1,2
 329 390 329 390 325.5 406 c 128,-1,3
 322 422 322 422 312.5 433.5 c 128,-1,4
 303 445 303 445 289 452 c 128,-1,5
 275 459 275 459 258 459 c 0,6,7
 249 459 249 459 235.5 457.5 c 128,-1,8
 222 456 222 456 206 452 c 128,-1,9
 190 448 190 448 172 441 c 128,-1,10
 154 434 154 434 138 424 c 1,11,-1
 64 0 l 1,12,-1
 13 0 l 1,13,-1
 136 700 l 1,14,-1
 186 700 l 1,15,-1
 147 482 l 1,16,17
 191 503 191 503 220.5 506.5 c 128,-1,18
 250 510 250 510 267 510 c 0,19,20
 295 510 295 510 317 499 c 128,-1,21
 339 488 339 488 354 468.5 c 128,-1,22
 369 449 369 449 375 423.5 c 128,-1,23
 381 398 381 398 376 369 c 2,24,-1
 311 0 l 1,25,-1
 261 0 l 1,0,-1
EndSplineSet
EndChar

StartChar: i
Encoding: 105 105 73
Width: 182
Flags: W
LayerCount: 2
Fore
SplineSet
136 700 m 1,0,-1
 189 700 l 1,1,-1
 175 622 l 1,2,-1
 122 622 l 1,3,-1
 136 700 l 1,0,-1
101 500 m 1,4,-1
 154 500 l 1,5,-1
 66 0 l 1,6,-1
 13 0 l 1,7,-1
 101 500 l 1,4,-1
EndSplineSet
EndChar

StartChar: j
Encoding: 106 106 74
Width: 183
Flags: W
LayerCount: 2
Fore
SplineSet
100 501 m 1,0,-1
 155 501 l 1,1,-1
 47 -113 l 2,2,3
 34 -183 34 -183 -5.5 -213.5 c 128,-1,4
 -45 -244 -45 -244 -95 -244 c 2,5,-1
 -113 -244 l 1,6,-1
 -103 -190 l 1,7,-1
 -90 -190 l 2,8,9
 -61 -190 -61 -190 -37.5 -175 c 128,-1,10
 -14 -160 -14 -160 -6 -118 c 2,11,-1
 100 501 l 1,0,-1
135 699 m 1,12,-1
 190 699 l 1,13,-1
 177 625 l 1,14,-1
 122 625 l 1,15,-1
 135 699 l 1,12,-1
EndSplineSet
EndChar

StartChar: k
Encoding: 107 107 75
Width: 335
Flags: W
LayerCount: 2
Fore
SplineSet
204 0 m 1,0,-1
 139 239 l 1,1,-1
 106 239 l 1,2,-1
 64 0 l 1,3,-1
 13 0 l 1,4,-1
 136 700 l 1,5,-1
 187 700 l 1,6,-1
 116 300 l 1,7,-1
 148 300 l 1,8,-1
 290 499 l 1,9,-1
 347 499 l 1,10,-1
 184 268 l 1,11,-1
 261 0 l 1,12,-1
 204 0 l 1,0,-1
EndSplineSet
EndChar

StartChar: l
Encoding: 108 108 76
Width: 211
Flags: W
LayerCount: 2
Fore
SplineSet
142 700 m 1,0,-1
 194 700 l 1,1,-1
 93 127 l 2,2,3
 89 106 89 106 92 92.5 c 128,-1,4
 95 79 95 79 103.5 70.5 c 128,-1,5
 112 62 112 62 124 58.5 c 128,-1,6
 136 55 136 55 150 55 c 2,7,-1
 163 55 l 1,8,-1
 154 1 l 1,9,-1
 136 1 l 2,10,11
 111 1 111 1 91 8.5 c 128,-1,12
 71 16 71 16 58 31.5 c 128,-1,13
 45 47 45 47 40.5 72 c 128,-1,14
 36 97 36 97 42 132 c 2,15,-1
 142 700 l 1,0,-1
EndSplineSet
EndChar

StartChar: m
Encoding: 109 109 77
Width: 691
Flags: W
LayerCount: 2
Fore
SplineSet
335 376 m 2,0,1
 338 394 338 394 332 409 c 128,-1,2
 326 424 326 424 313.5 435 c 128,-1,3
 301 446 301 446 284 452.5 c 128,-1,4
 267 459 267 459 249 459 c 0,5,6
 240 459 240 459 225 456 c 128,-1,7
 210 453 210 453 194.5 448 c 128,-1,8
 179 443 179 443 164 437 c 128,-1,9
 149 431 149 431 139 424 c 1,10,-1
 65 0 l 1,11,-1
 14 0 l 1,12,-1
 93 452 l 1,13,-1
 75 474 l 1,14,-1
 117 509 l 1,15,-1
 142 478 l 1,16,17
 171 492 171 492 198.5 501 c 128,-1,18
 226 510 226 510 251 510 c 0,19,20
 295 510 295 510 330.5 491 c 128,-1,21
 366 472 366 472 374 432 c 1,22,23
 392 456 392 456 412.5 471 c 128,-1,24
 433 486 433 486 454 494.5 c 128,-1,25
 475 503 475 503 495 506.5 c 128,-1,26
 515 510 515 510 533 510 c 0,27,28
 569 510 569 510 592.5 497 c 128,-1,29
 616 484 616 484 628 463.5 c 128,-1,30
 640 443 640 443 643 418.5 c 128,-1,31
 646 394 646 394 642 370 c 2,32,-1
 577 0 l 1,33,-1
 525 0 l 1,34,-1
 589 363 l 2,35,36
 592 382 592 382 590.5 399 c 128,-1,37
 589 416 589 416 581.5 429 c 128,-1,38
 574 442 574 442 559 450 c 128,-1,39
 544 458 544 458 520 458 c 0,40,41
 457 458 457 458 422.5 422.5 c 128,-1,42
 388 387 388 387 377 323 c 2,43,-1
 321 0 l 1,44,-1
 269 0 l 1,45,-1
 335 376 l 2,0,1
EndSplineSet
EndChar

StartChar: n
Encoding: 110 110 78
Width: 434
Flags: W
LayerCount: 2
Fore
SplineSet
380 427 m 1,0,1
 388 402 388 402 385.5 376.5 c 128,-1,2
 383 351 383 351 378 324 c 2,3,-1
 321 0 l 1,4,-1
 268 0 l 1,5,-1
 330 355 l 2,6,7
 339 406 339 406 317 433 c 128,-1,8
 295 460 295 460 261 460 c 0,9,10
 242 460 242 460 211.5 454 c 128,-1,11
 181 448 181 448 139 424 c 1,12,-1
 65 0 l 1,13,-1
 14 0 l 1,14,-1
 93 451 l 1,15,-1
 75 472 l 1,16,-1
 117 508 l 1,17,-1
 142 478 l 1,18,19
 201 509 201 509 251 509 c 0,20,21
 296 509 296 509 332 490.5 c 128,-1,22
 368 472 368 472 380 427 c 1,0,1
EndSplineSet
EndChar

StartChar: o
Encoding: 111 111 79
Width: 421
Flags: W
LayerCount: 2
Fore
SplineSet
291 144 m 2,0,-1
 329 361 l 2,1,2
 335 394 335 394 326.5 413.5 c 128,-1,3
 318 433 318 433 303 443.5 c 128,-1,4
 288 454 288 454 270.5 457.5 c 128,-1,5
 253 461 253 461 240 461 c 256,6,7
 227 461 227 461 207.5 457.5 c 128,-1,8
 188 454 188 454 169.5 443.5 c 128,-1,9
 151 433 151 433 135.5 413.5 c 128,-1,10
 120 394 120 394 114 361 c 2,11,-1
 76 144 l 2,12,13
 70 111 70 111 78.5 91.5 c 128,-1,14
 87 72 87 72 102 61 c 128,-1,15
 117 50 117 50 135 46.5 c 128,-1,16
 153 43 153 43 166 43 c 256,17,18
 179 43 179 43 198 46.5 c 128,-1,19
 217 50 217 50 236 61 c 128,-1,20
 255 72 255 72 270 91.5 c 128,-1,21
 285 111 285 111 291 144 c 2,0,-1
336 137 m 2,22,23
 328 91 328 91 306 63 c 128,-1,24
 284 35 284 35 257 19.5 c 128,-1,25
 230 4 230 4 203 -1 c 128,-1,26
 176 -6 176 -6 157 -6 c 256,27,28
 138 -6 138 -6 113 -1 c 128,-1,29
 88 4 88 4 66.5 19.5 c 128,-1,30
 45 35 45 35 33.5 63 c 128,-1,31
 22 91 22 91 30 137 c 2,32,-1
 70 368 l 2,33,34
 78 414 78 414 100 442 c 128,-1,35
 122 470 122 470 148.5 485 c 128,-1,36
 175 500 175 500 202 505 c 128,-1,37
 229 510 229 510 248 510 c 256,38,39
 267 510 267 510 292.5 505 c 128,-1,40
 318 500 318 500 339 485 c 128,-1,41
 360 470 360 470 372 442 c 128,-1,42
 384 414 384 414 376 368 c 2,43,-1
 336 137 l 2,22,23
EndSplineSet
EndChar

StartChar: p
Encoding: 112 112 80
Width: 421
Flags: W
LayerCount: 2
Fore
SplineSet
79 76 m 1,0,1
 89 68 89 68 104 62 c 128,-1,2
 119 56 119 56 134.5 51 c 128,-1,3
 150 46 150 46 164 43.5 c 128,-1,4
 178 41 178 41 187 41 c 0,5,6
 204 41 204 41 220.5 48 c 128,-1,7
 237 55 237 55 250.5 66.5 c 128,-1,8
 264 78 264 78 273 94 c 128,-1,9
 282 110 282 110 285 128 c 2,10,-1
 328 373 l 2,11,12
 331 391 331 391 327.5 406.5 c 128,-1,13
 324 422 324 422 315 433.5 c 128,-1,14
 306 445 306 445 292 452 c 128,-1,15
 278 459 278 459 261 459 c 0,16,17
 242 459 242 459 207.5 451.5 c 128,-1,18
 173 444 173 444 140 423 c 1,19,-1
 79 76 l 1,0,1
68 18 m 1,20,-1
 20 -250 l 1,21,-1
 -30 -250 l 1,22,-1
 94 453 l 1,23,-1
 76 474 l 1,24,-1
 117 510 l 1,25,-1
 143 480 l 1,26,27
 180 497 180 497 213 503.5 c 128,-1,28
 246 510 246 510 269 510 c 0,29,30
 297 510 297 510 319 499 c 128,-1,31
 341 488 341 488 356 469 c 128,-1,32
 371 450 371 450 377 424 c 128,-1,33
 383 398 383 398 378 369 c 2,34,-1
 336 131 l 2,35,36
 331 102 331 102 316 76.5 c 128,-1,37
 301 51 301 51 279.5 31.5 c 128,-1,38
 258 12 258 12 232 1 c 128,-1,39
 206 -10 206 -10 178 -10 c 0,40,41
 161 -10 161 -10 132.5 -6.5 c 128,-1,42
 104 -3 104 -3 68 18 c 1,20,-1
EndSplineSet
EndChar

StartChar: q
Encoding: 113 113 81
Width: 419
Flags: W
LayerCount: 2
Fore
SplineSet
326 422 m 1,0,1
 292 447 292 447 264 452.5 c 128,-1,2
 236 458 236 458 217 458 c 0,3,4
 200 458 200 458 184 451 c 128,-1,5
 168 444 168 444 154.5 432.5 c 128,-1,6
 141 421 141 421 132 405.5 c 128,-1,7
 123 390 123 390 120 372 c 2,8,-1
 77 128 l 2,9,10
 71 92 71 92 90.5 67 c 128,-1,11
 110 42 110 42 145 42 c 0,12,13
 154 42 154 42 168.5 44 c 128,-1,14
 183 46 183 46 199.5 50 c 128,-1,15
 216 54 216 54 233.5 60.5 c 128,-1,16
 251 67 251 67 265 77 c 1,17,-1
 326 422 l 1,0,1
235 7 m 2,18,19
 204 -7 204 -7 180 -8 c 128,-1,20
 156 -9 156 -9 139 -10 c 1,21,22
 111 -10 111 -10 88.5 1 c 128,-1,23
 66 12 66 12 50.5 31.5 c 128,-1,24
 35 51 35 51 29 76.5 c 128,-1,25
 23 102 23 102 28 131 c 2,26,-1
 69 368 l 2,27,28
 74 397 74 397 89 423 c 128,-1,29
 104 449 104 449 125.5 468 c 128,-1,30
 147 487 147 487 173 498 c 128,-1,31
 199 509 199 509 227 509 c 0,32,33
 249 509 249 509 280.5 502.5 c 128,-1,34
 312 496 312 496 343 479 c 1,35,-1
 379 509 l 1,36,-1
 408 473 l 1,37,-1
 382 452 l 1,38,-1
 258 -250 l 1,39,-1
 208 -250 l 1,40,-1
 255 16 l 1,41,-1
 235 7 l 2,18,19
EndSplineSet
EndChar

StartChar: r
Encoding: 114 114 82
Width: 332
Flags: W
LayerCount: 2
Fore
SplineSet
354 470 m 1,0,-1
 319 428 l 1,1,2
 304 438 304 438 294 443.5 c 128,-1,3
 284 449 284 449 275 452 c 128,-1,4
 266 455 266 455 257.5 455.5 c 128,-1,5
 249 456 249 456 239 456 c 0,6,7
 224 456 224 456 196.5 447.5 c 128,-1,8
 169 439 169 439 139 415 c 1,9,-1
 66 1 l 1,10,-1
 16 1 l 1,11,-1
 94 443 l 1,12,-1
 72 469 l 1,13,-1
 114 505 l 1,14,-1
 143 471 l 1,15,16
 177 497 177 497 204 503.5 c 128,-1,17
 231 510 231 510 250 510 c 0,18,19
 270 510 270 510 293 502 c 128,-1,20
 316 494 316 494 354 470 c 1,0,-1
EndSplineSet
EndChar

StartChar: s
Encoding: 115 115 83
Width: 364
Flags: W
LayerCount: 2
Fore
SplineSet
310 138 m 0,0,1
 297 64 297 64 253.5 27 c 128,-1,2
 210 -10 210 -10 152 -10 c 0,3,4
 134 -10 134 -10 115 -7 c 128,-1,5
 96 -4 96 -4 79 4 c 2,6,-1
 2 37 l 1,7,-1
 30 81 l 1,8,-1
 106 48 l 2,9,10
 120 42 120 42 134 39.5 c 128,-1,11
 148 37 148 37 161 37 c 0,12,13
 196 37 196 37 225 64 c 128,-1,14
 254 91 254 91 263 142 c 0,15,16
 267 163 267 163 261 178 c 128,-1,17
 255 193 255 193 243.5 202.5 c 128,-1,18
 232 212 232 212 217.5 216.5 c 128,-1,19
 203 221 203 221 190 221 c 0,20,21
 154 221 154 221 126 227.5 c 128,-1,22
 98 234 98 234 80.5 250.5 c 128,-1,23
 63 267 63 267 57 294 c 128,-1,24
 51 321 51 321 58 362 c 0,25,26
 71 435 71 435 117 472.5 c 128,-1,27
 163 510 163 510 221 510 c 0,28,29
 238 510 238 510 255.5 505.5 c 128,-1,30
 273 501 273 501 293 494 c 2,31,-1
 323 482 l 1,32,-1
 297 439 l 1,33,34
 274 448 274 448 261 452.5 c 128,-1,35
 248 457 248 457 239.5 459 c 128,-1,36
 231 461 231 461 226.5 461.5 c 128,-1,37
 222 462 222 462 217 462 c 2,38,-1
 212 462 l 2,39,40
 177 462 177 462 145.5 434.5 c 128,-1,41
 114 407 114 407 105 357 c 0,42,43
 102 336 102 336 108 320 c 128,-1,44
 114 304 114 304 126 292.5 c 128,-1,45
 138 281 138 281 152.5 275.5 c 128,-1,46
 167 270 167 270 181 270 c 0,47,48
 212 270 212 270 239 264.5 c 128,-1,49
 266 259 266 259 284 244.5 c 128,-1,50
 302 230 302 230 309.5 204 c 128,-1,51
 317 178 317 178 310 138 c 0,0,1
EndSplineSet
EndChar

StartChar: t
Encoding: 116 116 84
Width: 267
Flags: W
LayerCount: 2
Fore
SplineSet
74 130 m 2,0,-1
 131 451 l 1,1,-1
 46 451 l 1,2,-1
 55 501 l 1,3,-1
 140 501 l 1,4,-1
 175 700 l 1,5,-1
 228 700 l 1,6,-1
 193 501 l 1,7,-1
 285 501 l 1,8,-1
 276 451 l 1,9,-1
 184 451 l 1,10,-1
 127 125 l 2,11,12
 123 104 123 104 126 90.5 c 128,-1,13
 129 77 129 77 137.5 68.5 c 128,-1,14
 146 60 146 60 158 56.5 c 128,-1,15
 170 53 170 53 184 53 c 2,16,-1
 206 53 l 1,17,-1
 196 -1 l 1,18,-1
 169 -1 l 2,19,20
 144 -1 144 -1 124 6.5 c 128,-1,21
 104 14 104 14 91 29.5 c 128,-1,22
 78 45 78 45 73 70 c 128,-1,23
 68 95 68 95 74 130 c 2,0,-1
EndSplineSet
EndChar

StartChar: u
Encoding: 117 117 85
Width: 432
Flags: W
LayerCount: 2
Fore
SplineSet
38 74 m 1,0,1
 30 99 30 99 32.5 124.5 c 128,-1,2
 35 150 35 150 40 177 c 2,3,-1
 97 500 l 1,4,-1
 149 500 l 1,5,-1
 86 146 l 2,6,7
 81 120 81 120 85.5 100.5 c 128,-1,8
 90 81 90 81 100 68 c 128,-1,9
 110 55 110 55 125 48 c 128,-1,10
 140 41 140 41 157 41 c 0,11,12
 173 41 173 41 190 44 c 128,-1,13
 207 47 207 47 223 52.5 c 128,-1,14
 239 58 239 58 253.5 64.5 c 128,-1,15
 268 71 268 71 278 77 c 1,16,-1
 353 500 l 1,17,-1
 404 500 l 1,18,-1
 324 50 l 1,19,-1
 343 29 l 1,20,-1
 300 -7 l 1,21,-1
 276 23 l 1,22,23
 244 7 244 7 209.5 -0.5 c 128,-1,24
 175 -8 175 -8 149 -8 c 0,25,26
 113 -8 113 -8 81 10.5 c 128,-1,27
 49 29 49 29 38 74 c 1,0,1
EndSplineSet
EndChar

StartChar: v
Encoding: 118 118 86
Width: 365
Flags: W
LayerCount: 2
Fore
SplineSet
324 500 m 1,0,-1
 375 500 l 1,1,-1
 174 0 l 1,2,-1
 89 0 l 1,3,-1
 58 500 l 1,4,-1
 108 500 l 1,5,-1
 130 200 l 2,6,7
 131 185 131 185 131.5 162.5 c 128,-1,8
 132 140 132 140 132 119 c 128,-1,9
 132 98 132 98 132.5 83 c 128,-1,10
 133 68 133 68 133 68 c 1,11,-1
 153 68 l 1,12,13
 163 95 163 95 173 120 c 0,14,15
 181 141 181 141 190 163.5 c 128,-1,16
 199 186 199 186 205 201 c 2,17,-1
 324 500 l 1,0,-1
EndSplineSet
EndChar

StartChar: w
Encoding: 119 119 87
Width: 535
Flags: W
LayerCount: 2
Fore
SplineSet
344 499 m 1,0,-1
 341 65 l 1,1,-1
 349 65 l 1,2,-1
 489 500 l 1,3,-1
 539 500 l 1,4,-1
 371 0 l 1,5,-1
 297 0 l 1,6,-1
 295 436 l 1,7,-1
 284 436 l 1,8,-1
 130 0 l 1,9,-1
 57 0 l 1,10,-1
 65 500 l 1,11,-1
 115 500 l 1,12,-1
 98 66 l 1,13,-1
 107 66 l 1,14,-1
 257 499 l 1,15,-1
 344 499 l 1,0,-1
EndSplineSet
EndChar

StartChar: x
Encoding: 120 120 88
Width: 365
Flags: W
LayerCount: 2
Fore
SplineSet
157 220 m 1,0,-1
 25 0 l 1,1,-1
 -26 0 l 1,2,-1
 123 249 l 1,3,-1
 62 500 l 1,4,-1
 113 500 l 1,5,-1
 172 280 l 1,6,-1
 188 280 l 1,7,-1
 320 500 l 1,8,-1
 373 500 l 1,9,-1
 226 249 l 1,10,-1
 288 1 l 1,11,-1
 235 1 l 1,12,-1
 178 220 l 1,13,-1
 157 220 l 1,0,-1
EndSplineSet
EndChar

StartChar: y
Encoding: 121 121 89
Width: 376
Flags: W
LayerCount: 2
Fore
SplineSet
25 -250 m 1,0,-1
 111 0 l 1,1,-1
 104 0 l 1,2,-1
 59 500 l 1,3,-1
 110 500 l 1,4,5
 117 390 117 390 123.5 313.5 c 128,-1,6
 130 237 130 237 135 188 c 0,7,8
 141 131 141 131 146 94 c 1,9,-1
 158 94 l 1,10,11
 172 131 172 131 198 188 c 1,12,13
 219 237 219 237 253.5 313.5 c 128,-1,14
 288 390 288 390 339 500 c 1,15,-1
 390 500 l 1,16,-1
 168 0 l 1,17,-1
 162 0 l 1,18,-1
 76 -250 l 1,19,-1
 25 -250 l 1,0,-1
EndSplineSet
EndChar

StartChar: z
Encoding: 122 122 90
Width: 407
Flags: W
LayerCount: 2
Fore
SplineSet
325 0 m 1,0,-1
 -16 0 l 1,1,-1
 -7 52 l 1,2,-1
 312 428 l 1,3,-1
 315 447 l 1,4,-1
 71 447 l 1,5,-1
 80 498 l 1,6,-1
 395 498 l 1,7,-1
 386 446 l 1,8,-1
 67 69 l 1,9,-1
 63 51 l 1,10,-1
 333 51 l 1,11,-1
 325 0 l 1,0,-1
EndSplineSet
EndChar

StartChar: braceleft
Encoding: 123 123 91
Width: 235
Flags: W
LayerCount: 2
Fore
SplineSet
115 -74 m 2,0,1
 81 -74 81 -74 62 -67.5 c 128,-1,2
 43 -61 43 -61 32 -48 c 0,3,4
 20 -34 20 -34 17.5 -15 c 128,-1,5
 15 4 15 4 21 39 c 2,6,-1
 131 661 l 2,7,8
 137 696 137 696 146 715 c 128,-1,9
 155 734 155 734 172 748 c 0,10,11
 187 761 187 761 209 767.5 c 128,-1,12
 231 774 231 774 265 774 c 2,13,-1
 288 774 l 1,14,-1
 279 725 l 1,15,-1
 261 725 l 2,16,17
 238 725 238 725 225.5 723.5 c 128,-1,18
 213 722 213 722 204 714 c 0,19,20
 193 705 193 705 188.5 689 c 128,-1,21
 184 673 184 673 179 649 c 2,22,-1
 73 47 l 2,23,24
 68 23 68 23 68 8.5 c 128,-1,25
 68 -6 68 -6 76 -14 c 1,26,27
 82 -22 82 -22 94 -23.5 c 128,-1,28
 106 -25 106 -25 129 -25 c 2,29,-1
 147 -25 l 1,30,-1
 138 -74 l 1,31,-1
 115 -74 l 2,0,1
EndSplineSet
EndChar

StartChar: bar
Encoding: 124 124 92
Width: 189
Flags: W
LayerCount: 2
Fore
SplineSet
16 -10 m 1,0,-1
 141 700 l 1,1,-1
 191 700 l 1,2,-1
 66 -10 l 1,3,-1
 16 -10 l 1,0,-1
EndSplineSet
EndChar

StartChar: braceright
Encoding: 125 125 93
Width: 239
Flags: W
LayerCount: 2
Fore
SplineSet
129 41 m 1,0,1
 123 6 123 6 113.5 -13 c 128,-1,2
 104 -32 104 -32 87 -46 c 0,3,4
 71 -59 71 -59 49.5 -65.5 c 128,-1,5
 28 -72 28 -72 -6 -72 c 2,6,-1
 -32 -72 l 1,7,-1
 -24 -23 l 1,8,-1
 -3 -23 l 1,9,-1
 10 -23 l 2,10,11
 27 -23 27 -23 37 -21.5 c 128,-1,12
 47 -20 47 -20 55 -13 c 0,13,14
 65 -5 65 -5 70 9.5 c 128,-1,15
 75 24 75 24 80 48 c 2,16,-1
 187 655 l 2,17,18
 192 679 192 679 191.5 693.5 c 128,-1,19
 191 708 191 708 184 716 c 256,20,21
 177 724 177 724 165 725.5 c 128,-1,22
 153 727 153 727 130 727 c 2,23,-1
 109 727 l 1,24,-1
 117 776 l 1,25,-1
 143 776 l 2,26,27
 177 776 177 776 197 769.5 c 128,-1,28
 217 763 217 763 228 750 c 0,29,30
 239 736 239 736 242 717 c 128,-1,31
 245 698 245 698 238 663 c 2,32,-1
 129 41 l 1,33,-1
 129 41 l 1,0,1
EndSplineSet
EndChar

StartChar: asciitilde
Encoding: 126 126 94
Width: 461
Flags: W
LayerCount: 2
Fore
SplineSet
413 283 m 1,0,1
 392 265 392 265 376 254 c 128,-1,2
 360 243 360 243 346.5 237 c 128,-1,3
 333 231 333 231 321 228.5 c 128,-1,4
 309 226 309 226 295 226 c 0,5,6
 276 226 276 226 258 233.5 c 128,-1,7
 240 241 240 241 222 250 c 128,-1,8
 204 259 204 259 186 266.5 c 128,-1,9
 168 274 168 274 148 274 c 0,10,11
 130 274 130 274 114 267.5 c 128,-1,12
 98 261 98 261 69 236 c 1,13,-1
 41 263 l 1,14,15
 62 281 62 281 77.5 292 c 128,-1,16
 93 303 93 303 106.5 309 c 128,-1,17
 120 315 120 315 132.5 317.5 c 128,-1,18
 145 320 145 320 159 320 c 0,19,20
 180 320 180 320 197.5 312.5 c 128,-1,21
 215 305 215 305 232 296 c 128,-1,22
 249 287 249 287 266.5 279.5 c 128,-1,23
 284 272 284 272 305 272 c 0,24,25
 323 272 323 272 339 278.5 c 128,-1,26
 355 285 355 285 384 310 c 1,27,-1
 413 283 l 1,0,1
EndSplineSet
EndChar

StartChar: exclamdown
Encoding: 161 161 95
Width: 193
Flags: W
LayerCount: 2
Fore
SplineSet
169 560 m 1,0,-1
 71 1 l 1,1,-1
 19 1 l 1,2,-1
 117 560 l 1,3,-1
 169 560 l 1,0,-1
194 700 m 1,4,-1
 178 610 l 1,5,-1
 125 610 l 1,6,-1
 141 700 l 1,7,-1
 194 700 l 1,4,-1
EndSplineSet
EndChar

StartChar: cent
Encoding: 162 162 96
Width: 358
Flags: W
LayerCount: 2
Fore
SplineSet
211 508 m 1,0,-1
 234 637 l 1,1,-1
 284 637 l 1,2,-1
 262 511 l 1,3,4
 276 509 276 509 291 505 c 128,-1,5
 306 501 306 501 318 497 c 0,6,7
 332 492 332 492 345 487 c 1,8,-1
 326 444 l 1,9,10
 312 449 312 449 297 453 c 0,11,12
 284 457 284 457 269 460 c 128,-1,13
 254 463 254 463 240 463 c 0,14,15
 218 463 218 463 197.5 455.5 c 128,-1,16
 177 448 177 448 160 434 c 128,-1,17
 143 420 143 420 131 401 c 128,-1,18
 119 382 119 382 115 358 c 2,19,-1
 78 149 l 2,20,21
 73 125 73 125 78.5 105.5 c 128,-1,22
 84 86 84 86 96.5 72 c 128,-1,23
 109 58 109 58 127 50.5 c 128,-1,24
 145 43 145 43 167 43 c 0,25,26
 177 43 177 43 192.5 45.5 c 128,-1,27
 208 48 208 48 223 51 c 0,28,29
 241 55 241 55 259 60 c 1,30,-1
 267 14 l 1,31,32
 250 9 250 9 233 5 c 0,33,34
 219 1 219 1 202 -2 c 128,-1,35
 185 -5 185 -5 170 -6 c 1,36,-1
 148 -131 l 1,37,-1
 98 -131 l 1,38,-1
 121 -3 l 1,39,40
 96 3 96 3 76.5 16.5 c 128,-1,41
 57 30 57 30 44.5 50 c 128,-1,42
 32 70 32 70 27.5 95 c 128,-1,43
 23 120 23 120 28 149 c 2,44,-1
 65 358 l 2,45,46
 70 387 70 387 83 412 c 128,-1,47
 96 437 96 437 115.5 456.5 c 128,-1,48
 135 476 135 476 159.5 489 c 128,-1,49
 184 502 184 502 211 508 c 1,0,-1
EndSplineSet
EndChar

StartChar: sterling
Encoding: 163 163 97
Width: 503
Flags: W
LayerCount: 2
Fore
SplineSet
442 526 m 1,0,1
 449 567 449 567 440 592.5 c 128,-1,2
 431 618 431 618 413 632 c 128,-1,3
 395 646 395 646 372.5 650.5 c 128,-1,4
 350 655 350 655 332 655 c 0,5,6
 312 655 312 655 289 650 c 128,-1,7
 266 645 266 645 245 630.5 c 128,-1,8
 224 616 224 616 207.5 591.5 c 128,-1,9
 191 567 191 567 184 528 c 2,10,-1
 158 382 l 1,11,-1
 379 382 l 1,12,-1
 368 323 l 1,13,-1
 147 323 l 1,14,-1
 100 54 l 1,15,-1
 413 54 l 1,16,-1
 404 0 l 1,17,-1
 36 0 l 1,18,-1
 92 323 l 1,19,-1
 53 323 l 1,20,-1
 64 382 l 1,21,-1
 103 382 l 1,22,-1
 128 526 l 2,23,24
 135 566 135 566 154 599.5 c 128,-1,25
 173 633 173 633 201 657.5 c 128,-1,26
 229 682 229 682 265 695.5 c 128,-1,27
 301 709 301 709 343 709 c 0,28,29
 384 709 384 709 416 695.5 c 128,-1,30
 448 682 448 682 468 657.5 c 128,-1,31
 488 633 488 633 496 599.5 c 128,-1,32
 504 566 504 566 497 526 c 1,33,-1
 442 526 l 1,0,1
EndSplineSet
EndChar

StartChar: yen
Encoding: 165 165 98
Width: 483
Flags: W
LayerCount: 2
Fore
SplineSet
391 176 m 1,0,-1
 249 176 l 1,1,-1
 218 1 l 1,2,-1
 158 1 l 1,3,-1
 189 176 l 1,4,-1
 48 176 l 1,5,-1
 59 240 l 1,6,-1
 200 240 l 1,7,-1
 214 319 l 1,8,-1
 202 319 l 1,9,-1
 189 371 l 1,10,-1
 82 371 l 1,11,-1
 93 435 l 1,12,-1
 174 435 l 1,13,-1
 110 701 l 1,14,-1
 166 701 l 1,15,-1
 246 379 l 1,16,-1
 263 379 l 1,17,-1
 457 701 l 1,18,-1
 513 701 l 1,19,-1
 356 435 l 1,20,-1
 436 435 l 1,21,-1
 425 371 l 1,22,-1
 318 371 l 1,23,-1
 288 319 l 1,24,-1
 274 319 l 1,25,-1
 260 240 l 1,26,-1
 402 240 l 1,27,-1
 391 176 l 1,28,-1
 391 176 l 1,0,-1
EndSplineSet
EndChar

StartChar: brokenbar
Encoding: 166 166 99
Width: 192
Flags: W
LayerCount: 2
Fore
SplineSet
141 700 m 1,0,-1
 193 700 l 1,1,-1
 138 388 l 1,2,-1
 86 388 l 1,3,-1
 141 700 l 1,0,-1
73 312 m 1,4,-1
 125 312 l 1,5,-1
 70 0 l 1,6,-1
 18 0 l 1,7,-1
 73 312 l 1,4,-1
EndSplineSet
EndChar

StartChar: dieresis
Encoding: 168 168 100
Width: 451
Flags: W
LayerCount: 2
Fore
SplineSet
407 600 m 1,0,-1
 421 677 l 1,1,-1
 479 677 l 1,2,-1
 465 600 l 1,3,-1
 407 600 l 1,0,-1
209 600 m 1,4,-1
 223 677 l 1,5,-1
 281 677 l 1,6,-1
 267 600 l 1,7,-1
 209 600 l 1,4,-1
EndSplineSet
EndChar

StartChar: copyright
Encoding: 169 169 101
Width: 802
Flags: W
LayerCount: 2
Fore
SplineSet
769 349 m 256,0,1
 756 275 756 275 716.5 209.5 c 128,-1,2
 677 144 677 144 620 95 c 128,-1,3
 563 46 563 46 492.5 18 c 128,-1,4
 422 -10 422 -10 348 -10 c 256,5,6
 274 -10 274 -10 213.5 18 c 128,-1,7
 153 46 153 46 112.5 95 c 128,-1,8
 72 144 72 144 55.5 209.5 c 128,-1,9
 39 275 39 275 52 349 c 256,10,11
 65 423 65 423 105 488.5 c 128,-1,12
 145 554 145 554 202 602.5 c 128,-1,13
 259 651 259 651 329.5 679.5 c 128,-1,14
 400 708 400 708 474 708 c 256,15,16
 548 708 548 708 608.5 679.5 c 128,-1,17
 669 651 669 651 709 602.5 c 128,-1,18
 749 554 749 554 765.5 488.5 c 128,-1,19
 782 423 782 423 769 349 c 256,0,1
719 349 m 0,20,21
 730 413 730 413 716 469.5 c 128,-1,22
 702 526 702 526 667.5 568 c 128,-1,23
 633 610 633 610 581.5 634 c 128,-1,24
 530 658 530 658 466 658 c 256,25,26
 402 658 402 658 341.5 634 c 128,-1,27
 281 610 281 610 231.5 568 c 128,-1,28
 182 526 182 526 147.5 469.5 c 128,-1,29
 113 413 113 413 102 349 c 0,30,31
 91 284 91 284 105.5 228 c 128,-1,32
 120 172 120 172 154.5 130 c 128,-1,33
 189 88 189 88 241 64 c 128,-1,34
 293 40 293 40 357 40 c 256,35,36
 421 40 421 40 481 64 c 128,-1,37
 541 88 541 88 590.5 130 c 128,-1,38
 640 172 640 172 674 228 c 128,-1,39
 708 284 708 284 719 349 c 0,20,21
322 271 m 2,40,41
 315 233 315 233 336.5 210 c 128,-1,42
 358 187 358 187 393 187 c 0,43,44
 401 187 401 187 413 189 c 128,-1,45
 425 191 425 191 437 194 c 0,46,47
 451 197 451 197 466 201 c 1,48,-1
 472 165 l 1,49,50
 456 160 456 160 441 156 c 0,51,52
 427 153 427 153 412.5 150.5 c 128,-1,53
 398 148 398 148 387 148 c 0,54,55
 361 148 361 148 340 157 c 128,-1,56
 319 166 319 166 304.5 182.5 c 128,-1,57
 290 199 290 199 284 221.5 c 128,-1,58
 278 244 278 244 283 271 c 2,59,-1
 313 440 l 2,60,61
 318 467 318 467 331.5 489 c 128,-1,62
 345 511 345 511 364.5 527 c 128,-1,63
 384 543 384 543 408 552 c 128,-1,64
 432 561 432 561 458 561 c 0,65,66
 470 561 470 561 483.5 558 c 128,-1,67
 497 555 497 555 508 551 c 0,68,69
 521 547 521 547 534 541 c 1,70,-1
 519 507 l 1,71,72
 507 510 507 510 496 514 c 0,73,74
 486 517 486 517 474.5 519.5 c 128,-1,75
 463 522 463 522 452 522 c 0,76,77
 417 522 417 522 388 499.5 c 128,-1,78
 359 477 359 477 352 440 c 2,79,-1
 322 271 l 2,40,41
EndSplineSet
EndChar

StartChar: registered
Encoding: 174 174 102
Width: 801
Flags: W
LayerCount: 2
Fore
SplineSet
769 353 m 256,0,1
 756 279 756 279 716 213.5 c 128,-1,2
 676 148 676 148 619 99 c 128,-1,3
 562 50 562 50 491.5 22 c 128,-1,4
 421 -6 421 -6 347 -6 c 256,5,6
 273 -6 273 -6 212.5 22 c 128,-1,7
 152 50 152 50 112 99 c 128,-1,8
 72 148 72 148 55.5 213.5 c 128,-1,9
 39 279 39 279 52 353 c 256,10,11
 65 427 65 427 105 492.5 c 128,-1,12
 145 558 145 558 202 606.5 c 128,-1,13
 259 655 259 655 329.5 683.5 c 128,-1,14
 400 712 400 712 474 712 c 256,15,16
 548 712 548 712 608.5 683.5 c 128,-1,17
 669 655 669 655 709 606.5 c 128,-1,18
 749 558 749 558 765.5 492.5 c 128,-1,19
 782 427 782 427 769 353 c 256,0,1
719 353 m 0,20,21
 730 417 730 417 715.5 473.5 c 128,-1,22
 701 530 701 530 666.5 572 c 128,-1,23
 632 614 632 614 580.5 638 c 128,-1,24
 529 662 529 662 465 662 c 256,25,26
 401 662 401 662 340.5 638 c 128,-1,27
 280 614 280 614 231 572 c 128,-1,28
 182 530 182 530 147.5 473.5 c 128,-1,29
 113 417 113 417 102 353 c 0,30,31
 90 288 90 288 104.5 232 c 128,-1,32
 119 176 119 176 153.5 134 c 128,-1,33
 188 92 188 92 240 68 c 128,-1,34
 292 44 292 44 356 44 c 256,35,36
 420 44 420 44 480 68 c 128,-1,37
 540 92 540 92 589.5 134 c 128,-1,38
 639 176 639 176 673 232 c 128,-1,39
 707 288 707 288 719 353 c 0,20,21
436 533 m 0,40,41
 425 533 425 533 413.5 530.5 c 128,-1,42
 402 528 402 528 391 525 c 0,43,44
 379 521 379 521 367 518 c 1,45,-1
 338 352 l 1,46,-1
 405 352 l 2,47,48
 447 352 447 352 477.5 377 c 128,-1,49
 508 402 508 402 516 449 c 256,50,51
 524 496 524 496 501 514.5 c 128,-1,52
 478 533 478 533 436 533 c 0,40,41
461 328 m 1,53,-1
 502 147 l 1,54,-1
 468 147 l 1,55,-1
 426 319 l 1,56,57
 420 317 420 317 414 317 c 128,-1,58
 408 317 408 317 402 317 c 2,59,-1
 331 317 l 1,60,-1
 301 147 l 1,61,-1
 270 147 l 1,62,-1
 341 545 l 1,63,64
 358 551 358 551 376 556 c 0,65,66
 392 561 392 561 410.5 564.5 c 128,-1,67
 429 568 429 568 448 568 c 0,68,69
 472 568 472 568 493 560 c 128,-1,70
 514 552 514 552 528.5 537 c 128,-1,71
 543 522 543 522 549.5 499.5 c 128,-1,72
 556 477 556 477 551 449 c 0,73,74
 547 429 547 429 538.5 410 c 128,-1,75
 530 391 530 391 518 374.5 c 128,-1,76
 506 358 506 358 491.5 346 c 128,-1,77
 477 334 477 334 461 328 c 1,53,-1
EndSplineSet
EndChar

StartChar: degree
Encoding: 176 176 103
Width: 330
Flags: W
LayerCount: 2
Fore
SplineSet
340 586 m 0,0,1
 335 560 335 560 321.5 537.5 c 128,-1,2
 308 515 308 515 288 498 c 128,-1,3
 268 481 268 481 243 471 c 128,-1,4
 218 461 218 461 192 461 c 256,5,6
 166 461 166 461 145.5 471 c 128,-1,7
 125 481 125 481 111 498 c 128,-1,8
 97 515 97 515 91 537.5 c 128,-1,9
 85 560 85 560 90 586 c 0,10,11
 94 612 94 612 108 634.5 c 128,-1,12
 122 657 122 657 142 674 c 128,-1,13
 162 691 162 691 186 701 c 128,-1,14
 210 711 210 711 236 711 c 256,15,16
 262 711 262 711 283.5 701.5 c 128,-1,17
 305 692 305 692 319 675 c 128,-1,18
 333 658 333 658 338.5 635 c 128,-1,19
 344 612 344 612 340 586 c 0,0,1
294 586 m 0,20,21
 300 619 300 619 280.5 642 c 128,-1,22
 261 665 261 665 228 665 c 0,23,24
 212 665 212 665 196.5 659 c 128,-1,25
 181 653 181 653 168.5 642 c 128,-1,26
 156 631 156 631 147 616.5 c 128,-1,27
 138 602 138 602 135 586 c 0,28,29
 129 554 129 554 148.5 531 c 128,-1,30
 168 508 168 508 200 508 c 0,31,32
 216 508 216 508 232 514 c 128,-1,33
 248 520 248 520 260.5 530.5 c 128,-1,34
 273 541 273 541 282 555.5 c 128,-1,35
 291 570 291 570 294 586 c 0,20,21
EndSplineSet
EndChar

StartChar: acute
Encoding: 180 180 104
Width: 463
Flags: W
LayerCount: 2
Fore
SplineSet
361 590 m 1,0,-1
 309 590 l 1,1,-1
 431 737 l 1,2,-1
 492 737 l 1,3,-1
 361 590 l 1,0,-1
EndSplineSet
EndChar

StartChar: mu
Encoding: 181 181 105
AltUni2: 0003bc.ffffffff.0
Width: 442
Flags: W
LayerCount: 2
Fore
SplineSet
-15 -208 m 1,0,-1
 45 132 l 2,1,2
 46 143 46 143 48 154 c 128,-1,3
 50 165 50 165 52 177 c 2,4,-1
 109 500 l 1,5,-1
 110 500 l 1,6,-1
 110 502 l 1,7,-1
 160 502 l 1,8,-1
 160 500 l 1,9,-1
 161 500 l 1,10,-1
 98 146 l 2,11,12
 93 120 93 120 97.5 100.5 c 128,-1,13
 102 81 102 81 112 68 c 128,-1,14
 122 55 122 55 137 48 c 128,-1,15
 152 41 152 41 169 41 c 0,16,17
 185 41 185 41 202 44 c 128,-1,18
 219 47 219 47 235 52.5 c 128,-1,19
 251 58 251 58 265.5 64.5 c 128,-1,20
 280 71 280 71 290 77 c 1,21,-1
 365 500 l 1,22,-1
 416 500 l 1,23,-1
 336 50 l 1,24,-1
 355 29 l 1,25,-1
 312 -7 l 1,26,-1
 288 23 l 1,27,28
 256 7 256 7 221.5 -0.5 c 128,-1,29
 187 -8 187 -8 161 -8 c 0,30,31
 137 -8 137 -8 115 -0.5 c 128,-1,32
 93 7 93 7 76 24 c 1,33,-1
 35 -208 l 1,34,-1
 -15 -208 l 1,0,-1
EndSplineSet
EndChar

StartChar: cedilla
Encoding: 184 184 106
Width: 394
Flags: W
LayerCount: 2
Fore
SplineSet
216 -98 m 1,0,1
 206 -154 206 -154 186 -182 c 128,-1,2
 166 -210 166 -210 138 -222 c 1,3,-1
 116 -186 l 1,4,5
 135 -178 135 -178 148.5 -155.5 c 128,-1,6
 162 -133 162 -133 168 -97 c 2,7,-1
 177 -46 l 1,8,-1
 225 -46 l 1,9,-1
 216 -98 l 1,10,-1
 216 -98 l 1,0,1
EndSplineSet
EndChar

StartChar: questiondown
Encoding: 191 191 107
Width: 419
Flags: W
LayerCount: 2
Fore
SplineSet
325 463 m 1,0,-1
 309 373 l 1,1,-1
 240 373 l 1,2,-1
 256 463 l 1,3,-1
 325 463 l 1,0,-1
-28 -76 m 0,4,5
 -23 -44 -23 -44 -9.5 -21 c 128,-1,6
 4 2 4 2 18 19 c 2,7,-1
 199 234 l 2,8,9
 211 248 211 248 220.5 263.5 c 128,-1,10
 230 279 230 279 235 302 c 1,11,-1
 238 323 l 1,12,-1
 296 323 l 1,13,-1
 293 303 l 2,14,15
 287 268 287 268 274.5 245 c 128,-1,16
 262 222 262 222 247 205 c 2,17,-1
 75 1 l 2,18,19
 61 -16 61 -16 46.5 -36 c 128,-1,20
 32 -56 32 -56 28 -75 c 0,21,22
 23 -101 23 -101 32.5 -122 c 128,-1,23
 42 -143 42 -143 59 -157.5 c 128,-1,24
 76 -172 76 -172 97 -180 c 128,-1,25
 118 -188 118 -188 136 -188 c 0,26,27
 148 -188 148 -188 161 -185 c 128,-1,28
 174 -182 174 -182 187 -177 c 2,29,-1
 292 -140 l 1,30,-1
 301 -194 l 1,31,-1
 211 -229 l 2,32,33
 193 -236 193 -236 168 -241.5 c 128,-1,34
 143 -247 143 -247 127 -247 c 0,35,36
 91 -247 91 -247 59.5 -234.5 c 128,-1,37
 28 -222 28 -222 6.5 -199.5 c 128,-1,38
 -15 -177 -15 -177 -25 -145.5 c 128,-1,39
 -35 -114 -35 -114 -28 -76 c 0,4,5
EndSplineSet
EndChar

StartChar: AE
Encoding: 198 198 113
Width: 736
Flags: W
LayerCount: 2
Fore
SplineSet
418 635 m 1,0,-1
 181 255 l 1,1,-1
 402 254 l 1,2,-1
 470 634 l 1,3,-1
 418 635 l 1,0,-1
408 700 m 1,4,-1
 762 700 l 1,5,-1
 752 643 l 1,6,-1
 525 643 l 1,7,-1
 479 381 l 1,8,-1
 657 381 l 1,9,-1
 646 323 l 1,10,-1
 468 323 l 1,11,-1
 422 59 l 1,12,-1
 651 59 l 1,13,-1
 641 1 l 1,14,-1
 358 1 l 1,15,-1
 392 196 l 1,16,-1
 142 196 l 1,17,-1
 19 1 l 1,18,-1
 -35 1 l 1,19,-1
 408 700 l 1,4,-1
EndSplineSet
EndChar

StartChar: multiply
Encoding: 215 215 129
Width: 453
Flags: W
LayerCount: 2
Fore
SplineSet
328 99 m 1,0,-1
 216 235 l 1,1,-1
 56 99 l 1,2,-1
 27 134 l 1,3,-1
 187 270 l 1,4,-1
 75 406 l 1,5,-1
 116 441 l 1,6,-1
 228 305 l 1,7,-1
 388 441 l 1,8,-1
 417 406 l 1,9,-1
 257 270 l 1,10,-1
 369 134 l 1,11,-1
 328 99 l 1,0,-1
EndSplineSet
EndChar

StartChar: Oslash
Encoding: 216 216 130
Width: 521
Flags: W
LayerCount: 2
Fore
SplineSet
376 172 m 2,0,-1
 438 523 l 2,1,2
 445 563 445 563 434 587.5 c 128,-1,3
 423 612 423 612 403.5 625.5 c 128,-1,4
 384 639 384 639 361.5 643.5 c 128,-1,5
 339 648 339 648 323 648 c 256,6,7
 307 648 307 648 282.5 643 c 128,-1,8
 258 638 258 638 233.5 624.5 c 128,-1,9
 209 611 209 611 189.5 586.5 c 128,-1,10
 170 562 170 562 163 522 c 2,11,-1
 101 171 l 2,12,13
 94 131 94 131 105.5 107.5 c 128,-1,14
 117 84 117 84 136.5 71.5 c 128,-1,15
 156 59 156 59 179 55.5 c 128,-1,16
 202 52 202 52 218 52 c 256,17,18
 234 52 234 52 258 56 c 128,-1,19
 282 60 282 60 306 72.5 c 128,-1,20
 330 85 330 85 349.5 108.5 c 128,-1,21
 369 132 369 132 376 172 c 2,0,-1
431 172 m 2,22,23
 427 150 427 150 413 119 c 128,-1,24
 399 88 399 88 372 59.5 c 128,-1,25
 345 31 345 31 304 11 c 128,-1,26
 263 -9 263 -9 206 -9 c 0,27,28
 150 -9 150 -9 116.5 11 c 128,-1,29
 83 31 83 31 66.5 59.5 c 128,-1,30
 50 88 50 88 46.5 119 c 128,-1,31
 43 150 43 150 47 172 c 2,32,-1
 109 522 l 2,33,34
 113 544 113 544 127 576 c 128,-1,35
 141 608 141 608 168 637.5 c 128,-1,36
 195 667 195 667 236 688 c 128,-1,37
 277 709 277 709 334 709 c 0,38,39
 390 709 390 709 423 688 c 128,-1,40
 456 667 456 667 473 638 c 128,-1,41
 490 609 490 609 493.5 577 c 128,-1,42
 497 545 497 545 493 523 c 2,43,-1
 431 172 l 2,22,23
375 766 m 1,44,-1
 435 766 l 1,45,-1
 166 -66 l 1,46,-1
 106 -66 l 1,47,-1
 375 766 l 1,44,-1
EndSplineSet
EndChar

StartChar: Thorn
Encoding: 222 222 136
Width: 431
Flags: W
LayerCount: 2
Fore
SplineSet
92 71 m 1,0,1
 141 42 141 42 202 42 c 0,2,3
 219 42 219 42 235 49 c 128,-1,4
 251 56 251 56 264.5 68 c 128,-1,5
 278 80 278 80 287 95.5 c 128,-1,6
 296 111 296 111 299 129 c 2,7,-1
 342 372 l 2,8,9
 345 390 345 390 341.5 406 c 128,-1,10
 338 422 338 422 328.5 433.5 c 128,-1,11
 319 445 319 445 305 452 c 128,-1,12
 291 459 291 459 274 459 c 0,13,14
 250 459 250 459 215 450.5 c 128,-1,15
 180 442 180 442 154 424 c 1,16,-1
 92 71 l 1,0,1
163 482 m 1,17,18
 207 503 207 503 236.5 506.5 c 128,-1,19
 266 510 266 510 283 510 c 0,20,21
 311 510 311 510 333 499 c 128,-1,22
 355 488 355 488 370 468.5 c 128,-1,23
 385 449 385 449 391 423.5 c 128,-1,24
 397 398 397 398 392 369 c 2,25,-1
 350 133 l 2,26,27
 345 104 345 104 330 78.5 c 128,-1,28
 315 53 315 53 293.5 34 c 128,-1,29
 272 15 272 15 246 4 c 128,-1,30
 220 -7 220 -7 192 -7 c 0,31,32
 171 -7 171 -7 140.5 -2 c 128,-1,33
 110 3 110 3 81 19 c 1,34,-1
 34 -249 l 1,35,-1
 -16 -249 l 1,36,-1
 151 700 l 1,37,-1
 152 700 l 1,38,-1
 201 700 l 1,39,-1
 202 700 l 1,40,-1
 163 482 l 1,17,18
EndSplineSet
EndChar

StartChar: germandbls
Encoding: 223 223 137
Width: 507
Flags: W
LayerCount: 2
Fore
SplineSet
441 186 m 1,0,1
 437 163 437 163 424.5 131 c 128,-1,2
 412 99 412 99 387 70 c 128,-1,3
 362 41 362 41 322.5 20.5 c 128,-1,4
 283 0 283 0 226 0 c 2,5,-1
 174 0 l 1,6,-1
 183 54 l 1,7,-1
 233 54 l 2,8,9
 251 54 251 54 274 58.5 c 128,-1,10
 297 63 297 63 319.5 77.5 c 128,-1,11
 342 92 342 92 360 118 c 128,-1,12
 378 144 378 144 386 186 c 2,13,-1
 394 229 l 2,14,15
 401 272 401 272 393.5 298 c 128,-1,16
 386 324 386 324 370 338 c 128,-1,17
 354 352 354 352 334 356.5 c 128,-1,18
 314 361 314 361 296 361 c 2,19,-1
 273 361 l 1,20,-1
 283 415 l 1,21,-1
 305 415 l 1,22,-1
 309 415 l 2,23,24
 355 415 355 415 383 444.5 c 128,-1,25
 411 474 411 474 420 525 c 0,26,27
 427 568 427 568 418 594 c 128,-1,28
 409 620 409 620 392 634 c 128,-1,29
 375 648 375 648 353.5 652.5 c 128,-1,30
 332 657 332 657 315 657 c 0,31,32
 297 657 297 657 273.5 652.5 c 128,-1,33
 250 648 250 648 227.5 634 c 128,-1,34
 205 620 205 620 186 594 c 128,-1,35
 167 568 167 568 160 525 c 2,36,-1
 68 0 l 1,37,-1
 13 0 l 1,38,-1
 106 528 l 2,39,40
 110 550 110 550 122.5 581.5 c 128,-1,41
 135 613 135 613 160.5 641.5 c 128,-1,42
 186 670 186 670 226 690.5 c 128,-1,43
 266 711 266 711 325 711 c 0,44,45
 382 711 382 711 414.5 690.5 c 128,-1,46
 447 670 447 670 461.5 641 c 128,-1,47
 476 612 476 612 477.5 580 c 128,-1,48
 479 548 479 548 475 526 c 0,49,50
 468 484 468 484 442.5 445 c 128,-1,51
 417 406 417 406 375 392 c 1,52,53
 406 380 406 380 423 359.5 c 128,-1,54
 440 339 440 339 446.5 316 c 128,-1,55
 453 293 453 293 452.5 270.5 c 128,-1,56
 452 248 452 248 449 232 c 2,57,-1
 441 186 l 1,58,-1
 441 186 l 1,0,1
EndSplineSet
EndChar

StartChar: ae
Encoding: 230 230 143
Width: 645
Flags: W
LayerCount: 2
Fore
SplineSet
252 24 m 0,0,1
 217 4 217 4 181.5 -3 c 128,-1,2
 146 -10 146 -10 126 -10 c 0,3,4
 98 -10 98 -10 75.5 1.5 c 128,-1,5
 53 13 53 13 38.5 32.5 c 128,-1,6
 24 52 24 52 18.5 78 c 128,-1,7
 13 104 13 104 18 133 c 2,8,-1
 28 189 l 2,9,10
 33 218 33 218 47.5 243.5 c 128,-1,11
 62 269 62 269 83.5 288 c 128,-1,12
 105 307 105 307 131.5 318 c 128,-1,13
 158 329 158 329 186 329 c 0,14,15
 193 329 193 329 206.5 328 c 128,-1,16
 220 327 220 327 236 324 c 128,-1,17
 252 321 252 321 267.5 316 c 128,-1,18
 283 311 283 311 294 302 c 1,19,-1
 302 349 l 1,20,21
 303 370 303 370 297.5 390.5 c 128,-1,22
 292 411 292 411 281 426.5 c 128,-1,23
 270 442 270 442 254.5 451.5 c 128,-1,24
 239 461 239 461 219 461 c 0,25,26
 211 461 211 461 189.5 456 c 128,-1,27
 168 451 168 451 145 446 c 0,28,29
 118 440 118 440 87 432 c 1,30,-1
 81 479 l 1,31,32
 115 487 115 487 144 494 c 0,33,34
 169 500 169 500 193 505 c 128,-1,35
 217 510 217 510 227 510 c 0,36,37
 264 510 264 510 292 490.5 c 128,-1,38
 320 471 320 471 336 440 c 1,39,40
 359 472 359 472 393.5 491 c 128,-1,41
 428 510 428 510 466 510 c 2,42,-1
 500 510 l 2,43,44
 528 510 528 510 551.5 499 c 128,-1,45
 575 488 575 488 590 469 c 128,-1,46
 605 450 605 450 611.5 424 c 128,-1,47
 618 398 618 398 612 368 c 1,48,-1
 607 335 l 1,49,50
 599 293 599 293 579 264.5 c 128,-1,51
 559 236 559 236 530 218 c 128,-1,52
 501 200 501 200 465 192.5 c 128,-1,53
 429 185 429 185 390 185 c 0,54,55
 374 185 374 185 358 186 c 128,-1,56
 342 187 342 187 326 189 c 1,57,-1
 315 129 l 1,58,59
 315 89 315 89 341.5 65.5 c 128,-1,60
 368 42 368 42 407 42 c 0,61,62
 411 42 411 42 433 46.5 c 128,-1,63
 455 51 455 51 480 56 c 0,64,65
 509 62 509 62 545 70 c 1,66,-1
 547 17 l 1,67,68
 509 9 509 9 478 4 c 0,69,70
 452 -1 452 -1 427.5 -5 c 128,-1,71
 403 -9 403 -9 398 -9 c 0,72,73
 361 -9 361 -9 328.5 7.5 c 128,-1,74
 296 24 296 24 284 44 c 1,75,76
 279 42 279 42 275 38 c 1,77,78
 270 35 270 35 265 31.5 c 128,-1,79
 260 28 260 28 252 24 c 0,0,1
177 279 m 0,80,81
 160 279 160 279 143.5 272 c 128,-1,82
 127 265 127 265 113.5 253 c 128,-1,83
 100 241 100 241 90.5 225.5 c 128,-1,84
 81 210 81 210 78 192 c 2,85,-1
 67 129 l 2,86,87
 61 94 61 94 80.5 68.5 c 128,-1,88
 100 43 100 43 134 43 c 0,89,90
 149 43 149 43 169.5 48.5 c 128,-1,91
 190 54 190 54 209 61 c 0,92,93
 231 69 231 69 255 79 c 1,94,-1
 264 127 l 2,95,96
 264 132 264 132 264.5 137 c 128,-1,97
 265 142 265 142 266 147 c 2,98,-1
 284 244 l 1,99,100
 281 246 281 246 272.5 251.5 c 128,-1,101
 264 257 264 257 250 263 c 128,-1,102
 236 269 236 269 217.5 274 c 128,-1,103
 199 279 199 279 177 279 c 0,80,81
453 242 m 1,104,105
 471 241 471 241 488 248 c 128,-1,106
 505 255 505 255 518.5 267.5 c 128,-1,107
 532 280 532 280 541.5 296.5 c 128,-1,108
 551 313 551 313 554 331 c 2,109,-1
 561 373 l 2,110,111
 565 397 565 397 559.5 413.5 c 128,-1,112
 554 430 554 430 540.5 440 c 128,-1,113
 527 450 527 450 508.5 454.5 c 128,-1,114
 490 459 490 459 469 459 c 0,115,116
 450 459 450 459 431.5 453 c 128,-1,117
 413 447 413 447 398 436 c 128,-1,118
 383 425 383 425 372.5 409 c 128,-1,119
 362 393 362 393 358 373 c 2,120,-1
 335 242 l 1,121,-1
 453 242 l 1,104,105
EndSplineSet
EndChar

StartChar: igrave
Encoding: 236 236 149
Width: 182
Flags: W
LayerCount: 2
Fore
SplineSet
101 500 m 1,0,-1
 154 500 l 1,1,-1
 66 0 l 1,2,-1
 13 0 l 1,3,-1
 101 500 l 1,0,-1
113 589 m 1,4,-1
 33 736 l 1,5,-1
 94 736 l 1,6,-1
 165 589 l 1,7,-1
 113 589 l 1,4,-1
EndSplineSet
EndChar

StartChar: iacute
Encoding: 237 237 150
Width: 182
Flags: W
LayerCount: 2
Fore
SplineSet
101 500 m 1,0,-1
 154 500 l 1,1,-1
 66 0 l 1,2,-1
 13 0 l 1,3,-1
 101 500 l 1,0,-1
170 590 m 1,4,-1
 118 590 l 1,5,-1
 240 737 l 1,6,-1
 301 737 l 1,7,-1
 170 590 l 1,4,-1
EndSplineSet
EndChar

StartChar: idieresis
Encoding: 239 239 152
Width: 182
Flags: W
LayerCount: 2
Fore
SplineSet
101 500 m 1,0,-1
 154 500 l 1,1,-1
 66 0 l 1,2,-1
 13 0 l 1,3,-1
 101 500 l 1,0,-1
215 600 m 1,4,-1
 229 677 l 1,5,-1
 287 677 l 1,6,-1
 273 600 l 1,7,-1
 215 600 l 1,4,-1
17 600 m 1,8,-1
 31 677 l 1,9,-1
 89 677 l 1,10,-1
 75 600 l 1,11,-1
 17 600 l 1,8,-1
EndSplineSet
EndChar

StartChar: thorn
Encoding: 254 254 166
Width: 420
Flags: W
LayerCount: 2
Fore
SplineSet
77 70 m 1,0,1
 126 41 126 41 187 41 c 0,2,3
 204 41 204 41 220 48 c 128,-1,4
 236 55 236 55 249.5 67 c 128,-1,5
 263 79 263 79 272 94.5 c 128,-1,6
 281 110 281 110 284 128 c 2,7,-1
 327 371 l 2,8,9
 333 407 333 407 313.5 432.5 c 128,-1,10
 294 458 294 458 259 458 c 0,11,12
 235 458 235 458 200 449.5 c 128,-1,13
 165 441 165 441 139 423 c 1,14,-1
 77 70 l 1,0,1
148 481 m 1,15,16
 192 502 192 502 221.5 505.5 c 128,-1,17
 251 509 251 509 268 509 c 0,18,19
 296 509 296 509 318 498 c 128,-1,20
 340 487 340 487 355 467.5 c 128,-1,21
 370 448 370 448 375.5 422.5 c 128,-1,22
 381 397 381 397 376 368 c 2,23,-1
 335 132 l 2,24,25
 330 103 330 103 315 77.5 c 128,-1,26
 300 52 300 52 278.5 33 c 128,-1,27
 257 14 257 14 231 3 c 128,-1,28
 205 -8 205 -8 177 -8 c 0,29,30
 156 -8 156 -8 125.5 -3 c 128,-1,31
 95 2 95 2 66 18 c 1,32,-1
 18 -250 l 1,33,-1
 -32 -250 l 1,34,-1
 136 699 l 1,35,-1
 137 699 l 1,36,-1
 186 699 l 1,37,-1
 187 699 l 1,38,-1
 148 481 l 1,15,16
EndSplineSet
EndChar

StartChar: Lslash
Encoding: 321 321 168
Width: 384
Flags: W
LayerCount: 2
Fore
SplineSet
320 57 m 1,0,-1
 310 1 l 1,1,-1
 31 1 l 1,2,-1
 68 210 l 1,3,-1
 -1 210 l 1,4,-1
 8 264 l 1,5,-1
 77 264 l 1,6,-1
 154 700 l 1,7,-1
 211 700 l 1,8,-1
 134 264 l 1,9,-1
 353 264 l 1,10,-1
 344 210 l 1,11,-1
 125 210 l 1,12,-1
 98 57 l 1,13,-1
 320 57 l 1,14,-1
 320 57 l 1,0,-1
EndSplineSet
EndChar

StartChar: lslash
Encoding: 322 322 169
Width: 374
Flags: W
LayerCount: 2
Fore
SplineSet
164 209 m 1,0,-1
 150 127 l 2,1,2
 146 106 146 106 149 92.5 c 128,-1,3
 152 79 152 79 160.5 70.5 c 128,-1,4
 169 62 169 62 181 58.5 c 128,-1,5
 193 55 193 55 207 55 c 2,6,-1
 220 55 l 1,7,-1
 211 1 l 1,8,-1
 193 1 l 2,9,10
 168 1 168 1 148 8.5 c 128,-1,11
 128 16 128 16 115 31.5 c 128,-1,12
 102 47 102 47 97.5 72 c 128,-1,13
 93 97 93 97 99 132 c 2,14,-1
 112 209 l 1,15,-1
 8 209 l 1,16,-1
 18 263 l 1,17,-1
 122 263 l 1,18,-1
 199 700 l 1,19,-1
 251 700 l 1,20,-1
 174 263 l 1,21,-1
 361 263 l 1,22,-1
 351 209 l 1,23,-1
 164 209 l 1,0,-1
EndSplineSet
EndChar

StartChar: OE
Encoding: 338 338 170
Width: 724
Flags: W
LayerCount: 2
Fore
SplineSet
442 551 m 1,0,1
 444 585 444 585 431.5 606 c 128,-1,2
 419 627 419 627 400.5 638.5 c 128,-1,3
 382 650 382 650 361 654 c 128,-1,4
 340 658 340 658 325 658 c 0,5,6
 309 658 309 658 284.5 653 c 128,-1,7
 260 648 260 648 235.5 634.5 c 128,-1,8
 211 621 211 621 191 596.5 c 128,-1,9
 171 572 171 572 164 532 c 2,10,-1
 102 181 l 2,11,12
 95 141 95 141 106.5 117.5 c 128,-1,13
 118 94 118 94 137.5 81.5 c 128,-1,14
 157 69 157 69 180 65.5 c 128,-1,15
 203 62 203 62 219 62 c 0,16,17
 234 62 234 62 256.5 65.5 c 128,-1,18
 279 69 279 69 301.5 79.5 c 128,-1,19
 324 90 324 90 344 110 c 128,-1,20
 364 130 364 130 373 164 c 1,21,-1
 442 551 l 1,0,1
353 50 m 1,22,23
 327 29 327 29 291.5 15 c 128,-1,24
 256 1 256 1 208 1 c 0,25,26
 152 1 152 1 118.5 21 c 128,-1,27
 85 41 85 41 68.5 69.5 c 128,-1,28
 52 98 52 98 48.5 129 c 128,-1,29
 45 160 45 160 49 182 c 2,30,-1
 110 532 l 2,31,32
 114 554 114 554 128.5 586 c 128,-1,33
 143 618 143 618 170 647.5 c 128,-1,34
 197 677 197 677 237.5 698 c 128,-1,35
 278 719 278 719 335 719 c 0,36,37
 382 719 382 719 412.5 704 c 128,-1,38
 443 689 443 689 462 666 c 1,39,-1
 470 710 l 1,40,-1
 752 710 l 1,41,-1
 742 653 l 1,42,-1
 517 653 l 1,43,-1
 470 391 l 1,44,-1
 646 391 l 1,45,-1
 636 333 l 1,46,-1
 460 333 l 1,47,-1
 414 69 l 1,48,-1
 641 69 l 1,49,-1
 630 11 l 1,50,-1
 346 11 l 1,51,-1
 353 50 l 1,22,23
EndSplineSet
EndChar

StartChar: oe
Encoding: 339 339 171
Width: 670
Flags: W
LayerCount: 2
Fore
SplineSet
291 142 m 2,0,-1
 329 359 l 2,1,2
 335 392 335 392 326.5 411.5 c 128,-1,3
 318 431 318 431 303 441.5 c 128,-1,4
 288 452 288 452 270 455.5 c 128,-1,5
 252 459 252 459 239 459 c 256,6,7
 226 459 226 459 207 455.5 c 128,-1,8
 188 452 188 452 169 441.5 c 128,-1,9
 150 431 150 431 135 411.5 c 128,-1,10
 120 392 120 392 114 359 c 2,11,-1
 76 142 l 2,12,13
 70 109 70 109 78.5 89.5 c 128,-1,14
 87 70 87 70 102 59 c 128,-1,15
 117 48 117 48 135 44.5 c 128,-1,16
 153 41 153 41 166 41 c 256,17,18
 179 41 179 41 198 44.5 c 128,-1,19
 217 48 217 48 235.5 59 c 128,-1,20
 254 70 254 70 269.5 89.5 c 128,-1,21
 285 109 285 109 291 142 c 2,0,-1
335 135 m 2,22,23
 327 89 327 89 305.5 61 c 128,-1,24
 284 33 284 33 257 17.5 c 128,-1,25
 230 2 230 2 203 -3 c 128,-1,26
 176 -8 176 -8 157 -8 c 256,27,28
 138 -8 138 -8 113 -3 c 128,-1,29
 88 2 88 2 66.5 17.5 c 128,-1,30
 45 33 45 33 33 61 c 128,-1,31
 21 89 21 89 29 135 c 2,32,-1
 70 366 l 2,33,34
 78 412 78 412 100 440 c 128,-1,35
 122 468 122 468 148.5 483 c 128,-1,36
 175 498 175 498 202 503 c 128,-1,37
 229 508 229 508 248 508 c 256,38,39
 267 508 267 508 292.5 503 c 128,-1,40
 318 498 318 498 339 483 c 128,-1,41
 360 468 360 468 372 440 c 128,-1,42
 384 412 384 412 376 366 c 2,43,-1
 335 135 l 2,22,23
478 241 m 1,44,-1
 480 241 l 2,45,46
 498 241 498 241 514.5 248.5 c 128,-1,47
 531 256 531 256 544.5 268.5 c 128,-1,48
 558 281 558 281 567 297 c 128,-1,49
 576 313 576 313 579 331 c 2,50,-1
 586 373 l 2,51,52
 590 397 590 397 584.5 413.5 c 128,-1,53
 579 430 579 430 565.5 440 c 128,-1,54
 552 450 552 450 533.5 454.5 c 128,-1,55
 515 459 515 459 494 459 c 0,56,57
 475 459 475 459 456.5 453 c 128,-1,58
 438 447 438 447 423 436 c 128,-1,59
 408 425 408 425 397.5 409 c 128,-1,60
 387 393 387 393 383 373 c 2,61,-1
 360 242 l 1,62,-1
 478 241 l 1,44,-1
330 368 m 2,63,64
 335 398 335 398 350 424 c 128,-1,65
 365 450 365 450 387 469 c 128,-1,66
 409 488 409 488 435.5 499 c 128,-1,67
 462 510 462 510 491 510 c 2,68,-1
 525 510 l 2,69,70
 553 510 553 510 576.5 499 c 128,-1,71
 600 488 600 488 615 469 c 128,-1,72
 630 450 630 450 636.5 424 c 128,-1,73
 643 398 643 398 637 368 c 1,74,-1
 632 335 l 1,75,76
 624 293 624 293 604 264.5 c 128,-1,77
 584 236 584 236 555 218 c 128,-1,78
 526 200 526 200 490 192.5 c 128,-1,79
 454 185 454 185 415 185 c 0,80,81
 399 185 399 185 383 186 c 128,-1,82
 367 187 367 187 351 189 c 1,83,-1
 340 129 l 1,84,85
 340 89 340 89 366.5 65.5 c 128,-1,86
 393 42 393 42 432 42 c 0,87,88
 442 42 442 42 465 46 c 128,-1,89
 488 50 488 50 511 55 c 0,90,91
 538 61 538 61 570 69 c 1,92,-1
 572 17 l 1,93,94
 539 9 539 9 510 4 c 0,95,96
 485 -1 485 -1 460.5 -5 c 128,-1,97
 436 -9 436 -9 423 -9 c 0,98,99
 391 -9 391 -9 364 2.5 c 128,-1,100
 337 14 337 14 319 35 c 128,-1,101
 301 56 301 56 293 84.5 c 128,-1,102
 285 113 285 113 291 147 c 2,103,-1
 330 368 l 2,63,64
EndSplineSet
EndChar

StartChar: circumflex
Encoding: 710 710 177
Width: 396
Flags: W
LayerCount: 2
Fore
SplineSet
386 626 m 1,0,-1
 322 707 l 1,1,-1
 230 626 l 1,2,-1
 180 626 l 1,3,-1
 302 751 l 1,4,-1
 357 751 l 1,5,-1
 435 626 l 1,6,-1
 386 626 l 1,0,-1
EndSplineSet
EndChar

StartChar: caron
Encoding: 711 711 178
Width: 401
Flags: W
LayerCount: 2
Fore
SplineSet
252 750 m 1,0,-1
 315 669 l 1,1,-1
 408 750 l 1,2,-1
 458 750 l 1,3,-1
 336 625 l 1,4,-1
 281 625 l 1,5,-1
 203 750 l 1,6,-1
 252 750 l 1,0,-1
EndSplineSet
EndChar

StartChar: tilde
Encoding: 732 732 180
Width: 497
Flags: W
LayerCount: 2
Fore
SplineSet
489 655 m 1,0,-1
 503 605 l 1,1,-1
 231 605 l 1,2,-1
 215 655 l 1,3,-1
 489 655 l 1,0,-1
EndSplineSet
EndChar

StartChar: endash
Encoding: 8211 8211 181
Width: 465
Flags: W
LayerCount: 2
Fore
SplineSet
45 209 m 1,0,-1
 55 263 l 1,1,-1
 398 263 l 1,2,-1
 388 209 l 1,3,-1
 45 209 l 1,0,-1
EndSplineSet
EndChar

StartChar: emdash
Encoding: 8212 8212 182
Width: 736
Flags: W
LayerCount: 2
Fore
SplineSet
45 209 m 1,0,-1
 55 263 l 1,1,-1
 669 263 l 1,2,-1
 659 209 l 1,3,-1
 45 209 l 1,0,-1
EndSplineSet
EndChar

StartChar: quotesinglbase
Encoding: 8218 8218 183
Width: 190
Flags: W
LayerCount: 2
Fore
SplineSet
170 449 m 1,0,1
 160 393 160 393 131.5 359 c 128,-1,2
 103 325 103 325 61 309 c 1,3,-1
 55 369 l 1,4,5
 74 377 74 377 89.5 395.5 c 128,-1,6
 105 414 105 414 112 450 c 2,7,-1
 121 501 l 1,8,-1
 179 501 l 1,9,-1
 170 449 l 1,10,-1
 170 449 l 1,0,1
EndSplineSet
EndChar

StartChar: quotedblleft
Encoding: 8220 8220 184
Width: 318
Flags: W
LayerCount: 2
Fore
SplineSet
97 562 m 2,0,1
 107 618 107 618 135.5 652 c 128,-1,2
 164 686 164 686 205 702 c 1,3,-1
 212 642 l 1,4,5
 193 634 193 634 177 615.5 c 128,-1,6
 161 597 161 597 154 561 c 2,7,-1
 145 510 l 1,8,-1
 87 510 l 1,9,-1
 97 562 l 2,0,1
228 562 m 2,10,11
 238 618 238 618 266.5 652 c 128,-1,12
 295 686 295 686 336 702 c 1,13,-1
 343 642 l 1,14,15
 324 634 324 634 308 615.5 c 128,-1,16
 292 597 292 597 285 561 c 2,17,-1
 276 510 l 1,18,-1
 218 510 l 1,19,-1
 228 562 l 2,10,11
EndSplineSet
EndChar

StartChar: quotedblright
Encoding: 8221 8221 185
Width: 314
Flags: W
LayerCount: 2
Fore
SplineSet
332 648 m 2,0,1
 322 592 322 592 293.5 558 c 128,-1,2
 265 524 265 524 223 508 c 1,3,-1
 217 568 l 1,4,5
 236 576 236 576 251.5 594.5 c 128,-1,6
 267 613 267 613 274 649 c 2,7,-1
 283 700 l 1,8,-1
 341 700 l 1,9,-1
 332 648 l 2,0,1
201 648 m 2,10,11
 191 592 191 592 162.5 558 c 128,-1,12
 134 524 134 524 92 508 c 1,13,-1
 86 568 l 1,14,15
 105 576 105 576 120.5 594.5 c 128,-1,16
 136 613 136 613 143 649 c 2,17,-1
 152 700 l 1,18,-1
 210 700 l 1,19,-1
 201 648 l 2,10,11
EndSplineSet
EndChar

StartChar: bullet
Encoding: 8226 8226 186
Width: 298
Flags: W
LayerCount: 2
Fore
SplineSet
244 247 m 256,0,1
 240 226 240 226 228.5 207 c 128,-1,2
 217 188 217 188 200.5 173.5 c 128,-1,3
 184 159 184 159 163.5 151 c 128,-1,4
 143 143 143 143 122 143 c 256,5,6
 101 143 101 143 83.5 151 c 128,-1,7
 66 159 66 159 54.5 173.5 c 128,-1,8
 43 188 43 188 38 207 c 128,-1,9
 33 226 33 226 37 247 c 256,10,11
 41 268 41 268 52 287 c 128,-1,12
 63 306 63 306 79.5 320.5 c 128,-1,13
 96 335 96 335 116.5 343 c 128,-1,14
 137 351 137 351 158 351 c 256,15,16
 179 351 179 351 196.5 343 c 128,-1,17
 214 335 214 335 226 320.5 c 128,-1,18
 238 306 238 306 243 287 c 128,-1,19
 248 268 248 268 244 247 c 256,0,1
EndSplineSet
EndChar

StartChar: ellipsis
Encoding: 8230 8230 187
Width: 504
Flags: W
LayerCount: 2
Fore
SplineSet
6 5 m 1,0,-1
 22 93 l 1,1,-1
 91 93 l 1,2,-1
 75 5 l 1,3,-1
 6 5 l 1,0,-1
167 5 m 1,4,-1
 183 93 l 1,5,-1
 252 93 l 1,6,-1
 236 5 l 1,7,-1
 167 5 l 1,4,-1
328 5 m 1,8,-1
 344 93 l 1,9,-1
 413 93 l 1,10,-1
 397 5 l 1,11,-1
 328 5 l 1,8,-1
EndSplineSet
EndChar

StartChar: fraction
Encoding: 8260 8260 188
Width: 222
Flags: W
LayerCount: 2
Fore
SplineSet
203 699 m 1,0,-1
 263 699 l 1,1,-1
 39 1 l 1,2,-1
 -21 1 l 1,3,-1
 203 699 l 1,0,-1
EndSplineSet
EndChar

StartChar: Euro
Encoding: 8364 8364 189
Width: 466
Flags: W
LayerCount: 2
Fore
SplineSet
389 163 m 1,0,-1
 385 137 l 2,1,2
 380 108 380 108 365 83 c 128,-1,3
 350 58 350 58 329 39.5 c 128,-1,4
 308 21 308 21 282 10.5 c 128,-1,5
 256 0 256 0 228 0 c 2,6,-1
 195 0 l 2,7,8
 167 0 167 0 145 10.5 c 128,-1,9
 123 21 123 21 108 39.5 c 128,-1,10
 93 58 93 58 87.5 83 c 128,-1,11
 82 108 82 108 87 137 c 2,12,-1
 107 250 l 1,13,-1
 35 250 l 1,14,-1
 42 294 l 1,15,-1
 114 294 l 1,16,-1
 128 370 l 1,17,-1
 56 370 l 1,18,-1
 63 414 l 1,19,-1
 135 414 l 1,20,-1
 155 527 l 2,21,22
 160 556 160 556 175 581 c 128,-1,23
 190 606 190 606 211.5 624.5 c 128,-1,24
 233 643 233 643 259 653.5 c 128,-1,25
 285 664 285 664 313 664 c 2,26,-1
 346 664 l 2,27,28
 373 664 373 664 395.5 653.5 c 128,-1,29
 418 643 418 643 432.5 624.5 c 128,-1,30
 447 606 447 606 452.5 581 c 128,-1,31
 458 556 458 556 453 527 c 2,32,-1
 449 504 l 1,33,-1
 398 504 l 1,34,-1
 402 527 l 2,35,36
 409 567 409 567 385 588.5 c 128,-1,37
 361 610 361 610 324 610 c 0,38,39
 303 610 303 610 284 606 c 128,-1,40
 265 602 265 602 249 592 c 128,-1,41
 233 582 233 582 221.5 566.5 c 128,-1,42
 210 551 210 551 206 527 c 2,43,-1
 186 414 l 1,44,-1
 339 414 l 1,45,-1
 332 370 l 1,46,-1
 179 370 l 1,47,-1
 165 294 l 1,48,-1
 318 294 l 1,49,-1
 311 250 l 1,50,-1
 158 250 l 1,51,-1
 138 140 l 2,52,53
 132 104 132 104 151 78.5 c 128,-1,54
 170 53 170 53 205 53 c 2,55,-1
 237 53 l 2,56,57
 254 53 254 53 270 60 c 128,-1,58
 286 67 286 67 299.5 78.5 c 128,-1,59
 313 90 313 90 322 106 c 128,-1,60
 331 122 331 122 334 140 c 2,61,-1
 338 163 l 1,62,-1
 389 163 l 1,0,-1
EndSplineSet
EndChar

StartChar: trademark
Encoding: 8482 8482 190
Width: 559
Flags: W
LayerCount: 2
Fore
SplineSet
422 505 m 1,0,-1
 515 700 l 1,1,-1
 554 700 l 1,2,-1
 499 387 l 1,3,-1
 475 387 l 1,4,-1
 521 647 l 1,5,-1
 515 647 l 1,6,-1
 433 479 l 1,7,-1
 394 479 l 1,8,-1
 372 647 l 1,9,-1
 366 647 l 1,10,-1
 320 387 l 1,11,-1
 297 387 l 1,12,-1
 352 700 l 1,13,-1
 391 700 l 1,14,-1
 415 505 l 1,15,-1
 422 505 l 1,0,-1
298 700 m 1,16,-1
 294 676 l 1,17,-1
 222 676 l 1,18,-1
 171 387 l 1,19,-1
 147 387 l 1,20,-1
 198 676 l 1,21,-1
 124 676 l 1,22,-1
 128 700 l 1,23,-1
 298 700 l 1,16,-1
EndSplineSet
EndChar

StartChar: minus
Encoding: 8722 8722 191
Width: 485
Flags: W
LayerCount: 2
Fore
SplineSet
63 251 m 1,0,-1
 74 315 l 1,1,-1
 417 315 l 1,2,-1
 406 251 l 1,3,-1
 63 251 l 1,0,-1
EndSplineSet
EndChar

StartChar: fi
Encoding: 64257 64257 192
Width: 465
Flags: W
LayerCount: 2
Fore
SplineSet
418 700 m 1,0,-1
 471 700 l 1,1,-1
 457 622 l 1,2,-1
 404 622 l 1,3,-1
 418 700 l 1,0,-1
202 500 m 1,4,-1
 436 500 l 1,5,-1
 348 0 l 1,6,-1
 295 0 l 1,7,-1
 374 451 l 1,8,-1
 194 451 l 1,9,-1
 115 0 l 1,10,-1
 62 0 l 1,11,-1
 141 451 l 1,12,-1
 53 451 l 1,13,-1
 62 500 l 1,14,-1
 151 500 l 1,15,-1
 164 578 l 1,16,17
 177 648 177 648 216 678.5 c 128,-1,18
 255 709 255 709 305 709 c 2,19,-1
 323 709 l 1,20,-1
 313 655 l 1,21,-1
 300 655 l 2,22,23
 272 655 272 655 248 640 c 128,-1,24
 224 625 224 625 217 585 c 2,25,-1
 202 500 l 1,4,-1
EndSplineSet
EndChar

StartChar: fl
Encoding: 64258 64258 193
Width: 487
Flags: W
LayerCount: 2
Fore
SplineSet
318 132 m 2,0,-1
 374 451 l 1,1,-1
 194 451 l 1,2,-1
 115 0 l 1,3,-1
 62 0 l 1,4,-1
 141 451 l 1,5,-1
 53 451 l 1,6,-1
 62 500 l 1,7,-1
 151 500 l 1,8,-1
 164 578 l 1,9,10
 177 648 177 648 216 678.5 c 128,-1,11
 255 709 255 709 305 709 c 2,12,-1
 323 709 l 1,13,-1
 313 655 l 1,14,-1
 300 655 l 2,15,16
 272 655 272 655 248 640 c 128,-1,17
 224 625 224 625 217 585 c 2,18,-1
 202 500 l 1,19,-1
 383 500 l 1,20,-1
 418 700 l 1,21,-1
 470 700 l 1,22,-1
 369 127 l 2,23,24
 365 106 365 106 368 92.5 c 128,-1,25
 371 79 371 79 379.5 70.5 c 128,-1,26
 388 62 388 62 400 58.5 c 128,-1,27
 412 55 412 55 426 55 c 2,28,-1
 439 55 l 1,29,-1
 430 1 l 1,30,-1
 412 1 l 2,31,32
 387 1 387 1 367 8.5 c 128,-1,33
 347 16 347 16 334 31.5 c 128,-1,34
 321 47 321 47 316.5 72 c 128,-1,35
 312 97 312 97 318 132 c 2,0,-1
EndSplineSet
EndChar

